<?xml version="1.0" encoding="UTF-8"?>
<svg width="251px" height="251px" viewBox="0 0 251 251" version="1.1" xmlns="http://www.w3.org/2000/svg" xmlns:xlink="http://www.w3.org/1999/xlink">
    <!-- Generator: Sketch 51.3 (57544) - http://www.bohemiancoding.com/sketch -->
    <title>logo</title>
    <desc>Created with Sketch.</desc>
    <defs></defs>
    <g id="logo" stroke="none" stroke-width="1" fill="none" fill-rule="evenodd">
        <g fill="#84A5FF" id="Group">
            <g>
                <path d="M210.064752,125.499827 C210.064752,125.499827 220.742767,-3.62728493 96.6364879,0.0782540522 C90.2585065,0.268233835 85.6811493,6.41152857 87.1656477,12.7259935 C87.1656477,12.7259935 88.6057772,20.6430566 96.5385075,20.5941508 C120.63064,20.4455534 193.915906,33.0325161 187.822623,125.499827 C202.650709,125.499827 210.064752,125.499827 210.064752,125.499827 Z" id="arm-1" fill-rule="nonzero"></path>
                <path d="M124.224901,171.758908 C124.224901,171.758908 134.902917,42.6317959 10.7966378,46.3373349 C4.41865646,46.5273147 -0.158700788,52.6706094 1.32579766,58.9850743 C1.32579766,58.9850743 2.76592707,66.9021375 10.6986574,66.8532316 C34.7907897,66.7046342 108.076056,79.2915969 101.982773,171.758908 C116.810858,171.758908 124.224901,171.758908 124.224901,171.758908 Z" id="arm-1" fill-rule="nonzero" transform="translate(62.749914, 109.008994) rotate(-90.000000) translate(-62.749914, -109.008994) "></path>
                <path d="M164.691675,250.999827 C164.691675,250.999827 175.36969,121.872715 51.263411,125.578254 C44.8854296,125.768234 40.3080724,131.911529 41.7925708,138.225993 C41.7925708,138.225993 43.2327002,146.143057 51.1654305,146.094151 C75.2575629,145.945553 148.542829,158.532516 142.449546,250.999827 C157.277632,250.999827 164.691675,250.999827 164.691675,250.999827 Z" id="arm-1" fill-rule="nonzero" transform="translate(103.216687, 188.249914) rotate(-180.000000) translate(-103.216687, -188.249914) "></path>
                <path d="M249.724901,211.339677 C249.724901,211.339677 260.402917,82.2125652 136.296638,85.9181041 C129.918656,86.1080839 125.341299,92.2513787 126.825798,98.5658436 C126.825798,98.5658436 128.265927,106.482907 136.198657,106.434001 C160.29079,106.285403 233.576056,118.872366 227.482773,211.339677 C242.310858,211.339677 249.724901,211.339677 249.724901,211.339677 Z" id="arm-1" fill-rule="nonzero" transform="translate(188.249914, 148.589764) rotate(-270.000000) translate(-188.249914, -148.589764) "></path>
            </g>
        </g>
    </g>
</svg>