<?xml version="1.0" encoding="UTF-8"?>
<svg width="1134px" height="251px" viewBox="0 0 1134 251" version="1.1" xmlns="http://www.w3.org/2000/svg" xmlns:xlink="http://www.w3.org/1999/xlink">
    <!-- Generator: Sketch 51.3 (57544) - http://www.bohemiancoding.com/sketch -->
    <title>logo-text-light</title>
    <desc>Created with Sketch.</desc>
    <defs></defs>
    <g id="logo-text-light" stroke="none" stroke-width="1" fill="none" fill-rule="evenodd">
        <g id="logo">
            <g id="Group" stroke-width="1" fill-rule="evenodd" fill="#92F2BA">
                <path d="M127.468597,40.9345414 C127.468597,40.9345414 -3.69207764,29.76722 0.080428832,158.556883 C0.27384198,165.17555 6.52815997,169.925642 12.9567416,168.385124 C12.9567416,168.385124 21.016884,166.890648 20.9670943,158.658561 C20.8158114,133.657267 32.9088973,57.7574657 127.047302,64.0806905 L127.468597,40.9345414 Z" id="Shape" fill-rule="nonzero"></path>
                <path d="M36.0360563,123 C36.0360563,123 24.7185364,254.400679 153.274841,250.621325 C159.881515,250.425642 164.623001,244.159971 163.085274,237.719721 C163.085274,237.719721 161.595421,229.646866 153.376335,229.694827 C128.420341,229.846385 52.6580656,217.731347 58.9698331,123.423978 L36.0360563,123 Z" id="Shape" fill-rule="nonzero"></path>
                <path d="M123.531403,216.555589 C123.531403,216.555589 254.692078,227.632743 250.919571,98.8449979 C250.726158,92.224413 244.47184,87.4743206 238.043258,89.0148394 C238.043258,89.0148394 229.983116,90.5093148 230.032906,98.7414016 C230.184189,123.742696 218.091103,199.642497 123.952698,193.319272 L123.531403,216.555589 Z" id="Shape" fill-rule="nonzero"></path>
                <path d="M211.168457,127.699399 C211.168457,127.699399 222.22554,-3.69936237 93.669235,0.079992041 C87.062561,0.273756278 82.3210754,6.53942726 83.8588029,12.9796782 C83.8588029,12.9796782 85.3505704,21.0544515 93.5677413,21.0045715 C118.523735,20.853014 194.286011,32.9680515 187.974243,127.277339 L211.168457,127.699399 Z" id="Shape" fill-rule="nonzero"></path>
            </g>
            <path d="M123.5,217 C75.2531935,217 36,177.522503 36,129 C36,80.4774975 75.2531935,41 123.5,41 C171.746806,41 211,80.4774975 211,129 C211,177.522503 171.748717,217 123.5,217 Z" id="Shape" fill="#51C180" fill-rule="nonzero"></path>
            <path d="M123.5,181 C94.5512235,181 71,157.449206 71,128.500956 C71,99.5527055 94.5512235,76 123.5,76 C152.448777,76 176,99.5527055 176,128.500956 C176,157.449206 152.448777,181 123.5,181 Z" id="Shape" fill="#40A569" fill-rule="nonzero"></path>
            <path d="M152,128.5 C152,144.792604 139.016458,158 123,158 C106.983542,158 94,144.792604 94,128.5 C94,112.207396 106.983542,99 123,99 C139.016458,99 152,112.207396 152,128.5 Z" id="Shape" fill="#065125" fill-rule="nonzero"></path>
        </g>
        <g id="text-light" transform="translate(296.000000, 76.000000)" fill="#FFFFFF">
            <path d="M126.739,2.47 L111.806,91.246 C111.440665,92.981342 110.573007,94.3741614 109.203,95.4245 C107.832993,96.4748386 106.18901,97 104.271,97 L84.269,97 C82.3509904,97 80.7070068,96.4520055 79.337,95.356 C77.9669931,94.2599945 77.1450014,92.844342 76.871,91.109 L66.596,29.322 C65.8653297,25.3033132 65.3173352,21.330353 64.952,17.403 L62.349,17.403 C62.349,17.6770014 62.1435021,19.3666511 61.7325,22.472 C61.3214979,25.5773489 60.9790014,27.9063256 60.705,29.459 L50.567,91.109 C50.2929986,92.844342 49.4481737,94.2599945 48.0325,95.356 C46.6168263,96.4520055 44.9500096,97 43.032,97 L23.03,97 C21.2033242,97 19.5821737,96.4748386 18.1665,95.4245 C16.7508263,94.3741614 15.8603352,92.981342 15.495,91.246 L0.562,2.47 L21.934,2.47 L31.113,68.093 C31.6610027,72.2030205 32.0719986,76.7696415 32.346,81.793 L35.086,81.793 C35.3600014,79.2356539 36.0449945,74.6690329 37.141,68.093 L47.279,8.909 C47.5530014,6.99099041 48.35216,5.43833927 49.6765,4.251 C51.00084,3.06366073 52.6676566,2.47 54.677,2.47 L72.761,2.47 C74.6790096,2.47 76.30016,3.06366073 77.6245,4.251 C78.94884,5.43833927 79.7479986,6.99099041 80.022,8.909 L90.16,68.23 C91.2560055,74.9887005 91.8953324,79.5096552 92.078,81.793 L94.955,81.793 C95.3203352,76.586974 95.731331,72.1116854 96.188,68.367 L105.504,2.47 L126.739,2.47 Z M204.674,80.697 L205.633,96.041 C197.047624,96.9543379 182.434437,97.411 161.793,97.411 C155.490968,97.411 150.467685,95.6985171 146.723,92.2735 C142.978315,88.8484829 141.060334,84.2133626 140.969,78.368 L140.969,21.102 C141.060334,15.2566374 142.978315,10.6215171 146.723,7.1965 C150.467685,3.77148287 155.490968,2.059 161.793,2.059 C182.434437,2.059 197.047624,2.5156621 205.633,3.429 L204.674,18.91 L168.369,18.91 C166.085655,18.91 164.441672,19.4579945 163.437,20.554 C162.432328,21.6500055 161.93,23.4309877 161.93,25.897 L161.93,40.282 L199.605,40.282 L199.605,55.352 L161.93,55.352 L161.93,73.573 C161.93,76.1303461 162.432328,77.9569945 163.437,79.053 C164.441672,80.1490055 166.085655,80.697 168.369,80.697 L204.674,80.697 Z M243.427,97 L222.603,97 L222.603,2.47 L243.427,2.47 L243.427,97 Z M336.021,42.474 L336.021,97 L320.677,97 L318.759,87.547 C311.452297,95.0363708 302.364721,98.781 291.496,98.781 C280.90128,98.781 273.229357,94.8993721 268.48,87.136 C263.730643,79.3726278 261.356,66.8144201 261.356,49.461 C261.356,31.0115744 264.484135,18.2707018 270.7405,11.238 C276.996865,4.20529817 287.979588,0.689 303.689,0.689 C315.105724,0.689 324.78696,1.78498904 332.733,3.977 L331.089,19.321 C320.768282,18.864331 311.863371,18.636 304.374,18.636 C300.172646,18.636 296.861845,18.9784966 294.4415,19.6635 C292.021154,20.3485034 289.897676,21.8326552 288.071,24.116 C286.244324,26.3993447 285.011336,29.5731463 284.372,33.6375 C283.732663,37.7018537 283.413,43.204632 283.413,50.146 C283.413,61.9280589 284.508989,70.0109781 286.701,74.395 C288.893011,78.7790219 292.957304,80.971 298.894,80.971 C304.374027,80.971 310.036637,79.3726826 315.882,76.176 L315.882,42.474 L336.021,42.474 Z M429.848,2.47 L429.848,97 L409.024,97 L409.024,54.804 L375.596,54.804 L375.596,97 L354.772,97 L354.772,2.47 L375.596,2.47 L375.596,38.638 L409.024,38.638 L409.024,2.47 L429.848,2.47 Z M521.209,19.458 L492.987,19.458 L492.987,97 L472.026,97 L472.026,19.458 L443.804,19.458 L443.804,2.47 L521.209,2.47 L521.209,19.458 Z M555.715,2.47 L555.715,73.025 C555.715,75.4910123 556.285827,77.2719945 557.4275,78.368 C558.569172,79.4640055 560.46432,80.012 563.113,80.012 L595.582,80.012 L596.541,95.904 C587.316287,96.9086717 573.981754,97.411 556.537,97.411 C549.230297,97.411 543.796018,95.5843516 540.234,91.931 C536.671982,88.2776484 534.891,83.3913639 534.891,77.272 L534.891,2.47 L555.715,2.47 Z M672.832,80.697 L673.791,96.041 C665.205624,96.9543379 650.592436,97.411 629.951,97.411 C623.648968,97.411 618.625685,95.6985171 614.881,92.2735 C611.136314,88.8484829 609.218334,84.2133626 609.127,78.368 L609.127,21.102 C609.218334,15.2566374 611.136314,10.6215171 614.881,7.1965 C618.625685,3.77148287 623.648968,2.059 629.951,2.059 C650.592436,2.059 665.205624,2.5156621 673.791,3.429 L672.832,18.91 L636.527,18.91 C634.243655,18.91 632.599672,19.4579945 631.595,20.554 C630.590328,21.6500055 630.088,23.4309877 630.088,25.897 L630.088,40.282 L667.763,40.282 L667.763,55.352 L630.088,55.352 L630.088,73.573 C630.088,76.1303461 630.590328,77.9569945 631.595,79.053 C632.599672,80.1490055 634.243655,80.697 636.527,80.697 L672.832,80.697 Z M725.696,61.243 L706.653,54.53 C699.620298,51.9726539 694.597015,48.5020219 691.583,44.118 C688.568985,39.7339781 687.062,33.9800356 687.062,26.856 C687.062,16.4439479 689.596474,9.47985091 694.6655,5.9635 C699.734525,2.44714908 708.662269,0.689 721.449,0.689 C733.50506,0.689 743.87129,1.92198767 752.548,4.388 L751.178,18.636 C743.23196,18.3619986 733.368059,18.225 721.586,18.225 C716.105972,18.225 712.452676,18.7044952 710.626,19.6635 C708.799324,20.6225048 707.886,23.0199808 707.886,26.856 C707.886,29.9613489 708.570993,32.1989931 709.941,33.569 C711.311007,34.9390068 713.913981,36.2633269 717.75,37.542 L735.697,43.707 C743.003703,46.2643461 748.163985,49.7578112 751.178,54.1875 C754.192015,58.6171888 755.699,64.3939644 755.699,71.518 C755.699,82.1127196 753.141692,89.3051477 748.027,93.0955 C742.912308,96.8858523 733.779066,98.781 720.627,98.781 C709.940946,98.781 699.118055,97.5936785 688.158,95.219 L689.391,80.149 C708.845097,80.6056689 719.256993,80.834 720.627,80.834 C726.198361,80.834 729.920157,80.2403393 731.7925,79.053 C733.664843,77.8656607 734.601,75.3996854 734.601,71.655 C734.601,68.4583173 733.961673,66.19784 732.683,64.8735 C731.404327,63.54916 729.07535,62.3390055 725.696,61.243 Z M807.33,61.243 L788.287,54.53 C781.254298,51.9726539 776.231015,48.5020219 773.217,44.118 C770.202985,39.7339781 768.696,33.9800356 768.696,26.856 C768.696,16.4439479 771.230474,9.47985091 776.2995,5.9635 C781.368525,2.44714908 790.296269,0.689 803.083,0.689 C815.13906,0.689 825.50529,1.92198767 834.182,4.388 L832.812,18.636 C824.86596,18.3619986 815.002059,18.225 803.22,18.225 C797.739972,18.225 794.086676,18.7044952 792.26,19.6635 C790.433324,20.6225048 789.52,23.0199808 789.52,26.856 C789.52,29.9613489 790.204993,32.1989931 791.575,33.569 C792.945007,34.9390068 795.547981,36.2633269 799.384,37.542 L817.331,43.707 C824.637703,46.2643461 829.797985,49.7578112 832.812,54.1875 C835.826015,58.6171888 837.333,64.3939644 837.333,71.518 C837.333,82.1127196 834.775692,89.3051477 829.661,93.0955 C824.546308,96.8858523 815.413066,98.781 802.261,98.781 C791.574946,98.781 780.752055,97.5936785 769.792,95.219 L771.025,80.149 C790.479097,80.6056689 800.890993,80.834 802.261,80.834 C807.832361,80.834 811.554157,80.2403393 813.4265,79.053 C815.298842,77.8656607 816.235,75.3996854 816.235,71.655 C816.235,68.4583173 815.595673,66.19784 814.317,64.8735 C813.038327,63.54916 810.70935,62.3390055 807.33,61.243 Z" id="WEIGHTLESS"></path>
        </g>
    </g>
</svg>