<?xml version="1.0" encoding="UTF-8"?>
<svg width="1109px" height="251px" viewBox="0 0 1109 251" version="1.1" xmlns="http://www.w3.org/2000/svg" xmlns:xlink="http://www.w3.org/1999/xlink">
    <!-- Generator: Sketch 51.3 (57544) - http://www.bohemiancoding.com/sketch -->
    <title>logo-text-light</title>
    <desc>Created with Sketch.</desc>
    <defs></defs>
    <g id="logo-text-light" stroke="none" stroke-width="1" fill="none" fill-rule="evenodd">
        <g id="logo" fill="#84A5FF">
            <g id="Group">
                <path d="M210.064752,125.499827 C210.064752,125.499827 220.742767,-3.62728493 96.6364879,0.0782540522 C90.2585065,0.268233835 85.6811493,6.41152857 87.1656477,12.7259935 C87.1656477,12.7259935 88.6057772,20.6430566 96.5385075,20.5941508 C120.63064,20.4455534 193.915906,33.0325161 187.822623,125.499827 C202.650709,125.499827 210.064752,125.499827 210.064752,125.499827 Z" id="arm-1" fill-rule="nonzero"></path>
                <path d="M124.224901,171.758908 C124.224901,171.758908 134.902917,42.6317959 10.7966378,46.3373349 C4.41865646,46.5273147 -0.158700788,52.6706094 1.32579766,58.9850743 C1.32579766,58.9850743 2.76592707,66.9021375 10.6986574,66.8532316 C34.7907897,66.7046342 108.076056,79.2915969 101.982773,171.758908 C116.810858,171.758908 124.224901,171.758908 124.224901,171.758908 Z" id="arm-1" fill-rule="nonzero" transform="translate(62.749914, 109.008994) rotate(-90.000000) translate(-62.749914, -109.008994) "></path>
                <path d="M164.691675,250.999827 C164.691675,250.999827 175.36969,121.872715 51.263411,125.578254 C44.8854296,125.768234 40.3080724,131.911529 41.7925708,138.225993 C41.7925708,138.225993 43.2327002,146.143057 51.1654305,146.094151 C75.2575629,145.945553 148.542829,158.532516 142.449546,250.999827 C157.277632,250.999827 164.691675,250.999827 164.691675,250.999827 Z" id="arm-1" fill-rule="nonzero" transform="translate(103.216687, 188.249914) rotate(-180.000000) translate(-103.216687, -188.249914) "></path>
                <path d="M249.724901,211.339677 C249.724901,211.339677 260.402917,82.2125652 136.296638,85.9181041 C129.918656,86.1080839 125.341299,92.2513787 126.825798,98.5658436 C126.825798,98.5658436 128.265927,106.482907 136.198657,106.434001 C160.29079,106.285403 233.576056,118.872366 227.482773,211.339677 C242.310858,211.339677 249.724901,211.339677 249.724901,211.339677 Z" id="arm-1" fill-rule="nonzero" transform="translate(188.249914, 148.589764) rotate(-270.000000) translate(-188.249914, -148.589764) "></path>
            </g>
        </g>
        <g id="text-light" transform="translate(302.000000, 76.000000)" fill="#FFFFFF">
            <path d="M121.629,2.47 L102.449,93.438 C101.809663,95.8126785 100.211346,97 97.654,97 L83.954,97 C81.3053201,97 79.7526689,95.7670123 79.296,93.301 L64.5,22.198 C63.9519973,19.8233215 63.2213379,16.2613571 62.308,11.512 L59.431,11.512 L57.376,22.198 L42.717,93.301 C42.0776635,95.7670123 40.4793461,97 37.922,97 L24.085,97 C22.8976607,97 21.870171,96.6575034 21.0025,95.9725 C20.134829,95.2874966 19.6096676,94.4426717 19.427,93.438 L0.247,2.47 L12.988,2.47 L27.784,76.176 C27.9666676,76.9980041 28.6059945,80.879632 29.702,87.821 L32.853,87.821 C33.5836703,83.5283119 34.3143297,79.646684 35.045,76.176 L49.704,6.443 C50.1606689,3.79432009 51.7133201,2.47 54.362,2.47 L67.514,2.47 C69.9800123,2.47 71.5326635,3.79432009 72.172,6.443 L86.831,76.176 C87.7443379,80.6513557 88.3836648,84.5329836 88.749,87.821 L92.174,87.821 C92.9960041,82.3409726 93.5896648,78.505011 93.955,76.313 L108.888,2.47 L121.629,2.47 Z M197.098,86.999 L197.646,96.315 C189.243291,96.8630027 175.726093,97.137 157.094,97.137 C151.522639,97.137 147.11585,95.6528482 143.8735,92.6845 C140.63115,89.7161518 138.964334,85.7203584 138.873,80.697 L138.873,18.773 C138.964334,13.7496415 140.63115,9.75384817 143.8735,6.7855 C147.11585,3.81715182 151.522639,2.333 157.094,2.333 C175.726093,2.333 189.243291,2.60699726 197.646,3.155 L197.098,12.608 L159.149,12.608 C153.668973,12.608 150.929,15.6219699 150.929,21.65 L150.929,42.2 L191.755,42.2 L191.755,51.927 L150.929,51.927 L150.929,77.82 C150.929,83.9393639 153.668973,86.999 159.149,86.999 L197.098,86.999 Z M230.371,97 L218.315,97 L218.315,2.47 L230.371,2.47 L230.371,97 Z M312.142,97 L310.772,86.999 C302.734626,94.8537059 293.327387,98.781 282.55,98.781 C272.046614,98.781 264.44319,94.8537059 259.7395,86.999 C255.03581,79.1442941 252.684,66.6317525 252.684,49.461 C252.684,30.9202406 255.560971,18.1565349 261.315,11.1695 C267.069029,4.18246506 277.343926,0.689 292.14,0.689 C302.095383,0.689 310.863295,1.64799041 318.444,3.566 L317.211,12.608 C309.538962,11.8773297 301.410376,11.512 292.825,11.512 C285.609631,11.512 280.152518,12.4481573 276.4535,14.3205 C272.754481,16.1928427 269.991676,19.9146388 268.165,25.486 C266.338324,31.0573612 265.425,39.3229452 265.425,50.283 C265.425,64.2570699 266.931985,74.075305 269.946,79.738 C272.960015,85.400695 278.257295,88.232 285.838,88.232 C292.962036,88.232 300.725291,85.1723639 309.128,79.053 L309.128,42.337 L320.91,42.337 L320.91,97 L312.142,97 Z M411.723,2.47 L411.723,97 L399.667,97 L399.667,51.653 L356.101,51.653 L356.101,97 L344.045,97 L344.045,2.47 L356.101,2.47 L356.101,41.241 L399.667,41.241 L399.667,2.47 L411.723,2.47 Z M501.851,13.156 L471.3,13.156 L471.3,97 L459.244,97 L459.244,13.156 L428.83,13.156 L428.83,2.47 L501.851,2.47 L501.851,13.156 Z M530.603,2.47 L530.603,77.82 C530.603,83.8480301 533.662636,86.862 539.782,86.862 L573.895,86.862 L574.443,96.178 C566.49696,96.8173365 554.304082,97.137 537.864,97.137 C525.077269,97.137 518.684,91.2003927 518.684,79.327 L518.684,2.47 L530.603,2.47 Z M648.679,86.999 L649.227,96.315 C640.824291,96.8630027 627.307093,97.137 608.675,97.137 C603.103639,97.137 598.696849,95.6528482 595.4545,92.6845 C592.21215,89.7161518 590.545334,85.7203584 590.454,80.697 L590.454,18.773 C590.545334,13.7496415 592.21215,9.75384817 595.4545,6.7855 C598.696849,3.81715182 603.103639,2.333 608.675,2.333 C627.307093,2.333 640.824291,2.60699726 649.227,3.155 L648.679,12.608 L610.73,12.608 C605.249972,12.608 602.51,15.6219699 602.51,21.65 L602.51,42.2 L643.336,42.2 L643.336,51.927 L602.51,51.927 L602.51,77.82 C602.51,83.9393639 605.249972,86.999 610.73,86.999 L648.679,86.999 Z M703.735,56.996 L684.144,52.064 C677.476633,50.4199918 672.704514,47.4745212 669.8275,43.2275 C666.950485,38.9804788 665.512,33.158037 665.512,25.76 C665.512,20.2799726 666.082827,15.8731833 667.2245,12.5395 C668.366172,9.20581666 670.329819,6.69417511 673.1155,5.0045 C675.90118,3.31482488 679.006483,2.19600274 682.4315,1.648 C685.856517,1.09999726 690.445971,0.826 696.2,0.826 C707.342722,1.00866758 716.704295,1.92199178 724.285,3.566 L723.463,12.334 C714.603622,11.877331 705.698711,11.649 696.748,11.649 C692.729313,11.649 689.761009,11.7403324 687.843,11.923 C685.92499,12.1056676 684.052676,12.6536621 682.226,13.567 C680.399324,14.4803379 679.189169,15.9188235 678.5955,17.8825 C678.00183,19.8461765 677.705,22.563316 677.705,26.034 C677.705,31.0573584 678.595491,34.6193228 680.3765,36.72 C682.157509,38.8206772 685.239978,40.4189945 689.624,41.515 L708.804,46.31 C715.836702,48.045342 720.768652,51.0136457 723.6,55.215 C726.431347,59.4163543 727.847,65.3072954 727.847,72.888 C727.847,83.3000521 725.49519,90.1956498 720.7915,93.575 C716.08781,96.9543502 707.890725,98.644 696.2,98.644 C686.244617,98.644 676.472048,97.776342 666.882,96.041 L667.704,87.136 C683.048077,87.6840027 692.683647,87.9123338 696.611,87.821 C704.100371,87.821 709.146487,86.8620096 711.7495,84.944 C714.352513,83.0259904 715.654,78.9160315 715.654,72.614 C715.654,67.407974 714.763509,63.7775103 712.9825,61.7225 C711.201491,59.6674897 708.119022,58.0920055 703.735,56.996 Z M782.492,56.996 L762.901,52.064 C756.233633,50.4199918 751.461514,47.4745212 748.5845,43.2275 C745.707485,38.9804788 744.269,33.158037 744.269,25.76 C744.269,20.2799726 744.839827,15.8731833 745.9815,12.5395 C747.123172,9.20581666 749.086819,6.69417511 751.8725,5.0045 C754.65818,3.31482488 757.763483,2.19600274 761.1885,1.648 C764.613517,1.09999726 769.202971,0.826 774.957,0.826 C786.099722,1.00866758 795.461295,1.92199178 803.042,3.566 L802.22,12.334 C793.360622,11.877331 784.455711,11.649 775.505,11.649 C771.486313,11.649 768.518009,11.7403324 766.6,11.923 C764.68199,12.1056676 762.809676,12.6536621 760.983,13.567 C759.156324,14.4803379 757.946169,15.9188235 757.3525,17.8825 C756.75883,19.8461765 756.462,22.563316 756.462,26.034 C756.462,31.0573584 757.352491,34.6193228 759.1335,36.72 C760.914509,38.8206772 763.996978,40.4189945 768.381,41.515 L787.561,46.31 C794.593702,48.045342 799.525652,51.0136457 802.357,55.215 C805.188347,59.4163543 806.604,65.3072954 806.604,72.888 C806.604,83.3000521 804.25219,90.1956498 799.5485,93.575 C794.84481,96.9543502 786.647725,98.644 774.957,98.644 C765.001617,98.644 755.229048,97.776342 745.639,96.041 L746.461,87.136 C761.805077,87.6840027 771.440647,87.9123338 775.368,87.821 C782.857371,87.821 787.903487,86.8620096 790.5065,84.944 C793.109513,83.0259904 794.411,78.9160315 794.411,72.614 C794.411,67.407974 793.520509,63.7775103 791.7395,61.7225 C789.958491,59.6674897 786.876022,58.0920055 782.492,56.996 Z" id="WEIGHTLESS"></path>
        </g>
    </g>
</svg>