<?xml version="1.0" standalone="no"?>
<!DOCTYPE svg PUBLIC "-//W3C//DTD SVG 20010904//EN"
 "http://www.w3.org/TR/2001/REC-SVG-20010904/DTD/svg10.dtd">
<svg version="1.0" xmlns="http://www.w3.org/2000/svg"
 width="700.000000pt" height="700.000000pt" viewBox="0 0 700.000000 700.000000"
 preserveAspectRatio="xMidYMid meet">
<metadata>
Created by potrace 1.11, written by Peter Selinger 2001-2013
</metadata>
<g transform="translate(0.000000,700.000000) scale(0.100000,-0.100000)"
fill="#000000" stroke="none">
<path d="M2619 6986 c-93 -33 -154 -94 -185 -188 -48 -145 40 -324 178 -362
29 -8 118 -17 198 -20 478 -20 999 -181 1374 -426 154 -100 215 -149 344 -275
259 -250 444 -547 561 -900 114 -343 155 -648 149 -1088 l-3 -227 312 0 311 0
8 77 c4 43 4 161 0 263 -43 1146 -441 2063 -1126 2590 -492 380 -1122 571
-1874 570 -146 -1 -222 -5 -247 -14z"/>
<path d="M2980 5673 c-246 -17 -542 -64 -765 -119 -808 -200 -1406 -602 -1785
-1199 -125 -196 -248 -482 -314 -726 -75 -278 -106 -517 -113 -870 -7 -329 -3
-351 81 -435 67 -66 129 -88 230 -82 81 6 137 30 191 83 57 57 67 92 76 268
38 721 293 1344 728 1777 185 185 344 297 586 415 154 76 262 117 418 161 292
82 643 121 990 111 l197 -6 0 314 0 315 -237 -2 c-131 -1 -258 -3 -283 -5z"/>
<path d="M6625 4566 c-64 -20 -99 -42 -138 -85 -49 -54 -64 -116 -71 -291 -20
-478 -181 -999 -426 -1374 -100 -154 -149 -215 -275 -344 -250 -259 -547 -444
-900 -561 -343 -114 -648 -155 -1088 -149 l-227 3 0 -312 0 -311 77 -8 c43 -4
161 -4 263 0 1146 43 2063 441 2590 1126 385 499 579 1149 568 1898 l-3 217
-30 54 c-16 29 -45 66 -65 82 -73 61 -185 83 -275 55z"/>
<path d="M1157 3398 c-8 -120 6 -422 28 -623 70 -640 280 -1237 585 -1665 138
-194 335 -404 500 -531 314 -244 693 -416 1109 -503 225 -48 406 -67 696 -73
313 -7 351 -1 426 66 69 61 94 119 94 221 0 96 -20 151 -77 209 -62 63 -96 73
-278 82 -585 30 -1117 210 -1541 525 -134 100 -334 300 -436 438 -336 454
-496 1032 -481 1744 l5 212 -312 0 -312 0 -6 -102z"/>
</g>
</svg>
