<svg xmlns="http://www.w3.org/2000/svg" xmlns:xlink="http://www.w3.org/1999/xlink" viewBox="1 1 190 190"><defs><linearGradient id="b" x1="29" x2="82" y1="75" y2="44" gradientUnits="userSpaceOnUse"><stop offset="0" stop-color="#a52714"/><stop offset="1" stop-color="#a52714" stop-opacity="0"/></linearGradient><linearGradient id="c" x1="111" x2="53" y1="165" y2="130" gradientUnits="userSpaceOnUse"><stop offset="0" stop-color="#055524" stop-opacity="0"/><stop offset="0" stop-color="#055524" stop-opacity="0"/></linearGradient><linearGradient id="a" x1="122" x2="137" y1="50" y2="114" gradientUnits="userSpaceOnUse"><stop offset="0" stop-color="#ea6100" stop-opacity="0"/><stop offset="1" stop-color="#ea6100" stop-opacity="0"/></linearGradient><linearGradient id="i" x1="122" x2="137" y1="50" y2="114" xlink:href="#a" gradientUnits="userSpaceOnUse"/><linearGradient id="l" x1="29" x2="82" y1="75" y2="44" xlink:href="#b" gradientUnits="userSpaceOnUse"/><radialGradient id="d" cx="668" cy="56" r="84" gradientTransform="translate(-576)" gradientUnits="userSpaceOnUse"><stop offset="0" stop-color="#3e2723" stop-opacity="0"/><stop offset="1" stop-color="#3e2723" stop-opacity="0"/></radialGradient><linearGradient id="o" x1="111" x2="53" y1="165" y2="130" xlink:href="#c" gradientUnits="userSpaceOnUse"/><radialGradient id="p" cx="598" cy="49" r="78" xlink:href="#d" gradientTransform="translate(-576)" gradientUnits="userSpaceOnUse"/><radialGradient id="q" cx="672" cy="96" r="88" gradientTransform="translate(-576)" gradientUnits="userSpaceOnUse"><stop offset="0" stop-color="#263238" stop-opacity="0"/><stop offset="1" stop-color="#263238" stop-opacity="0"/></radialGradient><radialGradient id="r" cx="34" cy="32" r="177" gradientUnits="userSpaceOnUse"><stop offset="0" stop-color="#fff" stop-opacity="0"/><stop offset="1" stop-color="#fff" stop-opacity="0"/></radialGradient><circle id="e" cx="96" cy="96" r="88"/></defs><clipPath id="f"><use xlink:href="#e" overflow="visible"/></clipPath><g clip-path="url(#f)"><path fill="#db4437" d="M22 8v108h39l35-60h88V8z"/><path fill="url(#b)" d="M22 8v108h39l35-60h88V8z"/></g><path fill="none" d="M62 116L23 47l-1 1 39 68z" clip-path="url(#f)"/><g clip-path="url(#f)"><path fill="#0f9d58" d="M8 184h84l39-39v-29H61L8 25z"/><path fill="url(#c)" d="M8 184h84l39-39v-29H61L8 25z"/></g><path fill="none" d="M130 117h-1l-38 67h1l38-67z" clip-path="url(#f)"/><g clip-path="url(#f)"><defs><path id="g" d="M8 184h84l39-39v-29H61L8 25z"/></defs><clipPath id="h"><use xlink:href="#g" overflow="visible"/></clipPath><g clip-path="url(#h)"><path fill="#ffcd40" d="M96 56l35 60-39 68h92V56z"/><path fill="url(#a)" d="M96 56l35 60-39 68h92V56z"/></g></g><g clip-path="url(#f)"><path fill="#ffcd40" d="M96 56l35 60-39 68h92V56z"/><path fill="url(#i)" d="M96 56l35 60-39 68h92V56z"/></g><g clip-path="url(#f)"><defs><path id="j" d="M96 56l35 60-39 68h92V56z"/></defs><clipPath id="k"><use xlink:href="#j" overflow="visible"/></clipPath><g clip-path="url(#k)"><path fill="#db4437" d="M22 8v108h39l35-60h88V8z"/><path fill="url(#l)" d="M22 8v108h39l35-60h88V8z"/></g></g><path fill="url(#d)" d="M96 56v21l78-21z" clip-path="url(#f)"/><g clip-path="url(#f)"><defs><path id="m" d="M22 8v40l39 68 35-60h88V8z"/></defs><clipPath id="n"><use xlink:href="#m" overflow="visible"/></clipPath><g clip-path="url(#n)"><path fill="#0f9d58" d="M8 184h84l39-39v-29H61L8 25z"/><path fill="url(#o)" d="M8 184h84l39-39v-29H61L8 25z"/></g></g><path fill="url(#p)" d="M22 49l57 57-18 10z" clip-path="url(#f)"/><path fill="url(#q)" d="M92 184l21-78 18 10z" clip-path="url(#f)"/><g clip-path="url(#f)"><circle cx="96" cy="96" r="40" fill="#f1f1f1"/><circle cx="96" cy="96" r="32" fill="#4285f4"/></g><g clip-path="url(#f)" fill="none"><path d="M96 55c-22 0-40 18-40 40v1c0-22 18-40 40-40h88v-1H96z"/><path d="M131 116a40 40 0 0 1-70 0L8 25v1l53 91a40 40 0 0 0 70 0v-1z"/><path d="M131 117a39 39 0 0 0 3-32 38 38 0 0 1-3 31l-39 68h1l38-66z"/></g><g clip-path="url(#f)" fill="none"><path d="M96 9c48 0 88 39 88 88v-1A88 88 0 0 0 8 96v1C8 48 48 9 96 9z"/><path d="M96 183c48 0 88-39 88-87A88 88 0 0 1 8 96c0 48 40 87 88 87z"/></g><circle cx="96" cy="96" r="88" fill="url(#r)"/><path fill="none" d="M0 0h192v192H0z"/></svg>