<svg xmlns="http://www.w3.org/2000/svg" viewBox="6 6 109 109"><linearGradient id="a" x2="1" gradientTransform="rotate(90 20 32) scale(97.39658)" gradientUnits="userSpaceOnUse"><stop offset="0" stop-color="#ff1b2d"/><stop offset="0" stop-color="#ff1b2d"/><stop offset="1" stop-color="#ff1b2d"/><stop offset="1" stop-color="#a70014"/></linearGradient><linearGradient id="b" x2="1" gradientTransform="rotate(90 30 47) scale(86.1425)" gradientUnits="userSpaceOnUse"><stop offset="0" stop-color="#9c0000"/><stop offset="1" stop-color="#ff4b4b"/><stop offset="1" stop-color="#ff4b4b"/></linearGradient><path fill="url(#a)" d="M60 10a50 50 0 1 0 33 87c-5 4-12 7-20 7-12 0-22-6-30-16-5-6-9-16-9-27v-2c0-11 4-21 9-27 8-10 18-16 30-16 8 0 15 3 20 7-8-8-20-13-33-13z"/><path fill="url(#b)" d="M43 32c5-6 11-9 18-9 14 0 26 17 26 37S75 97 61 97c-7 0-13-3-18-9 8 10 18 16 30 16 8 0 15-3 20-7a50 50 0 0 0 0-74c-5-4-12-7-20-7-12 0-22 6-30 16"/></svg>