<svg xmlns="http://www.w3.org/2000/svg" viewBox="0 0 512 512"><defs><linearGradient id="a" x2="0" y2="100%"><stop offset="0" stop-color="#19d7ff"/><stop offset="100%" stop-color="#1e64f0"/></linearGradient></defs><rect rx="105" ry="105" width="513" height="512" fill="#fff"/><circle cx="256" cy="256" r="224" fill="url(#a)"/><path d="M409 102L237 237l40 40z" fill="red"/><path d="M102 409l135-172 40 40z" fill="#fff"/><path stroke="#fff" stroke-width="3" d="M256 54v33m0 337v33m35-400l-6 33m-58 331l-6 33M325 66l-11 31M198 414l-11 31m34-388l6 33m58 331l6 33M187 66l11 31m116 317l11 31M155 81l17 29m168 291l17 29M127 101l21 25m216 259l21 25M102 126l25 21m258 217l25 21M82 155l28 16m292 169l28 16M68 187l31 11m316 115l31 11M58 221l32 5m332 59l32 6M55 256h33m337 0h33M58 291l32-6m332-59l32-5M67 324l31-11m316-115l31-11M82 356l28-16m292-169l28-16M103 385l25-21m258-217l25-21M127 410l21-25m216-259l21-25M155 430l17-29m168-291l17-29M238 55l2 18m32 365l2 18M204 61l5 17m95 355l4 17M171 73l7 16m156 333l7 16M140 90l11 15m210 301l11 15M114 113l12 13m260 259l13 13M91 140l15 10m300 211l15 10M73 170l17 8m332 155l17 8M61 203l18 5m354 95l18 5M55 238l18 2m366 32l18 1m-402 0l18-1m366-32l18-2M61 308l18-5m354-95l18-5M73 341l17-8m332-155l17-8M91 371l15-10m300-211l15-10M140 421l11-15m210-301l11-15M171 438l8-16M334 89l7-16M204 450l5-17m95-355l4-17m-70 395l2-18m32-365l2-18"/></svg>