<?xml version="1.0" encoding="UTF-8"?>
<svg width="200px" height="200px" viewBox="0 0 200 200" version="1.1" xmlns="http://www.w3.org/2000/svg" xmlns:xlink="http://www.w3.org/1999/xlink">
    <!-- Generator: Sketch 51.3 (57544) - http://www.bohemiancoding.com/sketch -->
    <title>accessible</title>
    <desc>Created with Sketch.</desc>
    <defs></defs>
    <g id="accessible" stroke="none" stroke-width="1" fill="none" fill-rule="evenodd">
        <g id="key" fill-rule="nonzero">
            <path d="M187.044128,155.918149 C185.879715,154.846975 174.394306,155.5879 174.394306,155.5879 L174.263345,143.436299 L168.645552,137.014947 L155.329537,136.797153 L155.316726,136.778648 C155.260498,136.959431 155.31032,123.412811 155.31032,123.412811 L149.094662,118.909609 C149.094662,118.909609 137.005694,118.554448 136.90605,118.46121 L135.93452,106.041993 L124.742349,92.794306 C128.609964,84.4483986 130.839858,75.1743772 130.839858,65.3644128 C130.839858,29.2711744 101.553737,0.00996441281 65.4298932,0.00996441281 C29.286121,0.00284697509 0,29.2640569 0,65.3572954 C0,101.45694 29.286121,130.723843 65.4163701,130.723843 C75.4377224,130.723843 84.8989324,128.400712 93.3879004,124.370819 L167.785765,199.217082 C167.785765,199.217082 199.282562,199.303915 199.282562,199.291815 L199.332384,167.502491 C199.332384,167.502491 194.387189,162.681851 187.044128,155.918149 Z M52.9352313,68.5964413 C44.3715302,68.5964413 37.4327402,61.6142349 37.4327402,53.0007117 C37.4327402,44.3871886 44.3708185,37.3985765 52.9352313,37.3985765 C61.4996441,37.3985765 68.4441281,44.3864769 68.4441281,53.0007117 C68.4441281,61.6149466 61.4989324,68.5964413 52.9352313,68.5964413 Z" id="Shape" fill="#E6E6E6"></path>
            <path d="M52.947331,31.1508897 C40.9081851,31.1508897 31.1480427,40.911032 31.1480427,52.9501779 C31.1480427,64.9893238 40.9081851,74.7494662 52.947331,74.7494662 C64.9928826,74.7494662 74.7466192,64.9893238 74.7466192,52.9501779 C74.7466192,40.911032 64.9928826,31.1508897 52.947331,31.1508897 Z M52.947331,62.2932384 C47.7900356,62.2932384 43.6049822,58.1074733 43.6049822,52.9508897 C43.6049822,47.7879004 47.7907473,43.6085409 52.947331,43.6085409 C58.1046263,43.6085409 62.2896797,47.7879004 62.2896797,52.9508897 C62.2896797,58.1074733 58.1046263,62.2932384 52.947331,62.2932384 Z" id="Shape" fill="#999999"></path>
            <path d="M108.35516,114.598577 C102.407117,119.780783 95.5245552,123.872598 87.9822064,126.65694 L161.943772,199.323132 L193.085409,199.323132 L108.35516,114.598577 Z" id="Shape" fill="#999999"></path>
        </g>
    </g>
</svg>