<?xml version="1.0" encoding="UTF-8"?>
<svg width="200px" height="200px" viewBox="0 0 200 200" version="1.1" xmlns="http://www.w3.org/2000/svg" xmlns:xlink="http://www.w3.org/1999/xlink">
    <!-- Generator: Sketch 51.3 (57544) - http://www.bohemiancoding.com/sketch -->
    <title>documented</title>
    <desc>Created with Sketch.</desc>
    <defs></defs>
    <g id="documented" stroke="none" stroke-width="1" fill="none" fill-rule="evenodd">
        <g id="file" transform="translate(5.000000, 0.000000)" fill-rule="nonzero">
            <g id="Group">
                <polygon id="Shape" fill="#E6E6E6" points="155.120947 48.0356837 107.085263 0 0.720535255 0 0.720535255 199.004975 155.120947 199.004975"></polygon>
                <g transform="translate(30.880082, 44.604563)" fill="#999999" id="Shape">
                    <path d="M4.15165552,34.3112026 L89.929662,34.3112026 C91.8236404,34.3112026 93.3607823,32.7774919 93.3607823,30.8800823 C93.3607823,28.9826728 91.8236404,27.4489621 89.929662,27.4489621 L4.15165552,27.4489621 C2.25767713,27.4489621 0.720535255,28.9826728 0.720535255,30.8800823 C0.720535255,32.7774919 2.25767713,34.3112026 4.15165552,34.3112026 Z"></path>
                    <path d="M4.15165552,6.86224052 L38.4628581,6.86224052 C40.3568365,6.86224052 41.8939784,5.32852976 41.8939784,3.43112026 C41.8939784,1.53371076 40.3568365,0 38.4628581,0 L4.15165552,0 C2.25767713,0 0.720535255,1.53371076 0.720535255,3.43112026 C0.720535255,5.32852976 2.25767713,6.86224052 4.15165552,6.86224052 Z"></path>
                    <path d="M89.929662,54.8979242 L4.15165552,54.8979242 C2.25767713,54.8979242 0.720535255,56.4316349 0.720535255,58.3290444 C0.720535255,60.2264539 2.25767713,61.7601647 4.15165552,61.7601647 L89.929662,61.7601647 C91.8236404,61.7601647 93.3607823,60.2264539 93.3607823,58.3290444 C93.3607823,56.4316349 91.8236404,54.8979242 89.929662,54.8979242 Z"></path>
                    <path d="M89.929662,82.3468863 L4.15165552,82.3468863 C2.25767713,82.3468863 0.720535255,83.880597 0.720535255,85.7780065 C0.720535255,87.675416 2.25767713,89.2091268 4.15165552,89.2091268 L89.929662,89.2091268 C91.8236404,89.2091268 93.3607823,87.675416 93.3607823,85.7780065 C93.3607823,83.880597 91.8236404,82.3468863 89.929662,82.3468863 Z"></path>
                    <path d="M89.929662,109.795848 L4.15165552,109.795848 C2.25767713,109.795848 0.720535255,111.329559 0.720535255,113.226969 C0.720535255,115.124378 2.25767713,116.658089 4.15165552,116.658089 L89.929662,116.658089 C91.8236404,116.658089 93.3607823,115.124378 93.3607823,113.226969 C93.3607823,111.329559 91.8236404,109.795848 89.929662,109.795848 Z"></path>
                </g>
                <polygon id="Shape" fill="#999999" points="107.085263 0 107.085263 48.0356837 155.120947 48.0356837"></polygon>
            </g>
            <g id="Group" transform="translate(106.364728, 116.658089)">
                <circle id="Oval" fill="#999999" cx="41.8939784" cy="41.1734431" r="41.1734431"></circle>
                <path d="M63.4448447,22.195917 C61.883685,21.111683 59.7495282,21.4959684 58.6687253,23.053697 L39.4681764,50.6399039 L25.9186824,39.516212 C24.4570252,38.3118888 22.2919883,38.5280494 21.0910962,39.9931378 C19.886773,41.4582261 20.0995025,43.6198319 21.568022,44.820724 L37.9893635,58.3015955 C38.6069652,58.8059701 39.3755361,59.0804598 40.1646938,59.0804598 C40.3190942,59.0804598 40.4769257,59.0701664 40.6347572,59.0495797 C41.5817464,58.915766 42.4326643,58.3976668 42.9816435,57.6119403 L64.3026248,26.9754675 C65.3834277,25.4177389 64.9991422,23.280151 63.4448447,22.195917 Z" id="Shape" fill="#FFFFFF"></path>
            </g>
        </g>
    </g>
</svg>