<?xml version="1.0" encoding="UTF-8"?>
<svg width="200px" height="200px" viewBox="0 0 200 200" version="1.1" xmlns="http://www.w3.org/2000/svg" xmlns:xlink="http://www.w3.org/1999/xlink">
    <!-- Generator: Sketch 51.3 (57544) - http://www.bohemiancoding.com/sketch -->
    <title>encapsulated</title>
    <desc>Created with Sketch.</desc>
    <defs></defs>
    <g id="encapsulated" stroke="none" stroke-width="1" fill="none" fill-rule="evenodd">
        <g id="shield" transform="translate(15.000000, 0.000000)" fill-rule="nonzero">
            <path d="M84.9887306,62.1664838 C64.0168129,62.1664838 46.9557138,79.2275828 46.9557138,100.197977 C46.9557138,121.169895 64.0168129,138.230994 84.9887306,138.230994 C105.959125,138.230994 123.020224,121.169895 123.020224,100.197977 C123.020224,79.2275828 105.959125,62.1664838 84.9887306,62.1664838 Z M107.568835,93.0357579 L80.3225513,120.282042 C79.1788499,121.425743 77.6787891,121.998355 76.1802511,121.998355 C74.6817131,121.998355 73.183175,121.427266 72.0394737,120.282042 L61.6273758,109.869944 C59.3399731,107.584064 59.3399731,103.875792 61.6273758,101.588389 C63.9132554,99.3009867 67.6215279,99.3009867 69.9089302,101.588389 L76.1802511,107.85971 L99.2872807,84.7542031 C101.57316,82.4668008 105.281433,82.4668008 107.568835,84.7542031 C109.856238,87.0400827 109.856238,90.7483552 107.568835,93.0357579 Z" id="Shape" fill="#999999"></path>
            <path d="M169.781006,54.5489158 L169.774915,54.3935793 C169.688109,52.4762425 169.630239,50.4477341 169.595212,48.1907895 C169.432261,37.1847587 160.683175,28.0808359 149.675621,27.4655825 C126.725451,26.1848195 108.97143,18.7012671 93.8017786,3.91538752 L93.6723318,3.79203197 C88.7244152,-0.744700195 81.2606604,-0.744700195 76.3112207,3.79203197 L76.1817739,3.91538752 C61.0121224,18.7012671 43.2581018,26.1848195 20.3079314,27.4671053 C9.30190058,28.0808359 0.551291228,37.1847587 0.388340741,48.1923123 C0.354836647,50.4340277 0.295443275,52.4625365 0.208637817,54.3935793 L0.199500585,54.7545076 C-0.246710331,78.1569809 -0.801047953,107.282529 8.94249513,133.718628 C14.3000733,148.256274 22.4141084,160.893336 33.0576877,171.281067 C45.1800074,183.110989 61.0578094,192.502741 80.2494519,199.194384 C80.8738425,199.412159 81.5226,199.588816 82.1835404,199.721308 C83.1155579,199.907103 84.0536671,200 84.9917762,200 C85.9298854,200 86.8695173,199.907103 87.8000121,199.721308 C88.4609528,199.588816 89.1142788,199.410636 89.7417154,199.191338 C108.910514,192.487512 124.771564,183.091191 136.883224,171.262792 C147.522234,160.872015 155.636269,148.231908 160.998416,133.691216 C170.778509,107.175926 170.225694,77.9955532 169.781006,54.5489158 Z M84.9887306,149.943653 C57.558175,149.943653 35.2430558,127.628533 35.2430558,100.197977 C35.2430558,72.7674222 57.558175,50.4523025 84.9887306,50.4523025 C112.417763,50.4523025 134.734405,72.7674222 134.734405,100.197977 C134.734405,127.628533 112.417763,149.943653 84.9887306,149.943653 Z" id="Shape" fill="#E6E6E6"></path>
        </g>
    </g>
</svg>