<?xml version="1.0" encoding="UTF-8"?>
<svg width="200px" height="200px" viewBox="0 0 200 200" version="1.1" xmlns="http://www.w3.org/2000/svg" xmlns:xlink="http://www.w3.org/1999/xlink">
    <!-- Generator: Sketch 51.3 (57544) - http://www.bohemiancoding.com/sketch -->
    <title>framework-agnostic</title>
    <desc>Created with Sketch.</desc>
    <defs></defs>
    <g id="framework-agnostic" stroke="none" stroke-width="1" fill="none" fill-rule="evenodd">
        <g id="Angular_full_color_logo" transform="translate(101.000000, 10.000000)" fill-rule="nonzero">
            <polygon id="Shape" fill="#E6E6E6" points="41.4204545 0 41.4204545 0 41.4204545 0 0 14.94 6.31762035 70.335 41.4204545 90 41.4204545 90 41.4204545 90 76.5232887 70.335 82.8409091 14.94"></polygon>
            <polygon id="Shape" fill="#999999" points="41.9318182 0 41.9318182 9.99 41.9318182 9.945 41.9318182 55.53 41.9318182 55.53 41.9318182 90 41.9318182 90 77.4680207 70.335 83.8636364 14.94"></polygon>
            <path d="M42.4880692,10.2272727 L16.3636364,68.5227273 L26.1041895,68.5227273 L31.3560084,55.4788401 L53.5303552,55.4788401 L58.7821742,68.5227273 L68.5227273,68.5227273 L42.4880692,10.2272727 Z M50.1189172,47.4380878 L34.8572211,47.4380878 L42.4880692,29.1677116 L50.1189172,47.4380878 Z" id="Shape" fill="#FFFFFF"></path>
        </g>
        <g id="Vue.js_Logo_2" transform="translate(8.000000, 15.000000)" fill-rule="nonzero">
            <g id="Group" transform="translate(45.000000, 39.656627) scale(-1, 1) rotate(-180.000000) translate(-45.000000, -39.656627) translate(0.000000, 0.156627)">
                <g transform="translate(0.026977, 0.004515)" fill="#999999" id="Shape">
                    <polygon points="54.4029643 77.2068398 44.2107263 59.4790658 34.0184883 77.2068398 0.0768835281 77.2068398 44.2107263 0.442471947 88.3445691 77.2068398"></polygon>
                </g>
                <g transform="translate(17.561816, 30.706650)" fill="#E6E6E6" id="Shape">
                    <polygon points="36.8681246 46.5047047 26.6758866 28.7769307 16.4836486 46.5047047 0.195580905 46.5047047 26.6758866 0.446986967 53.1561922 46.5047047"></polygon>
                </g>
            </g>
        </g>
        <g id="preact-seeklogo.com" transform="translate(17.000000, 105.000000)" fill-rule="nonzero">
            <polygon id="Shape" fill="#E6E6E6" points="36 0 72 20.7843607 72 62.353082 36 83.1374426 0 62.353082 0 20.7843607"></polygon>
            <path d="M9.8057133,62.0095694 C14.5916511,68.1352903 29.8011659,63.4677089 44.1604316,52.249021 C58.5196973,41.0303329 66.7281465,27.401796 61.9422086,21.2760749 C57.1562708,15.1503539 41.9467562,19.8179353 27.5874903,31.0366235 C13.2282244,42.2553113 5.01977548,55.8838482 9.8057133,62.0095694 Z M11.8502817,60.4121774 C10.2630551,58.3806198 10.956536,54.3925915 13.9804288,49.3720043 C17.1646129,44.0852842 22.5700572,38.2492595 29.1848822,33.0811917 C35.7997073,27.9131241 42.7700723,24.0801067 48.6700779,22.2694798 C54.2730783,20.5499995 58.3104136,20.8419094 59.8976401,22.8734669 C61.4848669,24.9050244 60.7913859,28.8930527 57.7674931,33.9136403 C54.5833088,39.2003601 49.1778647,45.0363848 42.5630396,50.2044525 C35.9482146,55.3725203 28.9778496,59.2055376 23.0778439,61.0161643 C17.4748435,62.7356447 13.4375084,62.4437348 11.8502817,60.4121774 Z" id="Shape" fill="#FFFFFF"></path>
            <path d="M61.9422086,62.0095694 C66.7281465,55.8838482 58.5196973,42.2553113 44.1604316,31.0366235 C29.8011659,19.8179353 14.5916511,15.1503539 9.8057133,21.2760749 C5.01977548,27.401796 13.2282244,41.0303329 27.5874903,52.249021 C41.9467562,63.4677089 57.1562708,68.1352903 61.9422086,62.0095694 Z M59.8976401,60.4121774 C58.3104136,62.4437348 54.2730783,62.7356447 48.6700779,61.0161643 C42.7700723,59.2055376 35.7997073,55.3725203 29.1848822,50.2044525 C22.5700572,45.0363848 17.1646129,39.2003601 13.9804288,33.9136403 C10.956536,28.8930527 10.2630551,24.9050244 11.8502817,22.8734669 C13.4375084,20.8419094 17.4748435,20.5499995 23.0778439,22.2694798 C28.9778496,24.0801067 35.9482146,27.9131241 42.5630396,33.0811917 C49.1778647,38.2492595 54.5833088,44.0852842 57.7674931,49.3720043 C60.7913859,54.3925915 61.4848669,58.3806198 59.8976401,60.4121774 Z" id="Shape" fill="#FFFFFF"></path>
            <path d="M35.8739609,47.1563356 C38.9189903,47.1563356 41.3874745,44.6878516 41.3874745,41.6428223 C41.3874745,38.5977926 38.9189903,36.1293086 35.8739609,36.1293086 C32.8289316,36.1293086 30.3604473,38.5977926 30.3604473,41.6428223 C30.3604473,44.6878516 32.8289316,47.1563356 35.8739609,47.1563356 Z" id="Shape" fill="#FFFFFF"></path>
        </g>
        <g id="Topeka-polymer" transform="translate(101.000000, 116.000000)" fill-rule="nonzero">
            <polygon id="Shape" fill="#999999" points="17.6351351 30.4054054 8.51351351 46.1856344 17.6351351 62.027027 26.7567568 46.1856344"></polygon>
            <polygon id="Shape" fill="#999999" points="70.3648649 0 61.2432432 15.8108108 70.3648649 31.6216216 79.4864865 15.8108108"></polygon>
            <polygon id="Shape" fill="#E6E6E6" points="52.9388495 0 17.2432432 62.027027 35.0611505 62.027027 70.7567568 8.53298228e-15"></polygon>
            <polygon id="Shape" fill="#E6E6E6" points="18.2432432 1 0 31.8108108 9.12162162 47.2162162 36.4864865 1"></polygon>
            <polygon id="Shape" fill="#E6E6E6" points="79.3648649 16 52 62.2162162 70.2432432 62.2162162 88.4864865 31.3855275"></polygon>
        </g>
    </g>
</svg>