<?xml version="1.0" encoding="UTF-8"?>
<svg width="24px" height="24px" viewBox="0 0 24 24" version="1.1" xmlns="http://www.w3.org/2000/svg" xmlns:xlink="http://www.w3.org/1999/xlink">
    <!-- Generator: Sketch 50.2 (55047) - http://www.bohemiancoding.com/sketch -->
    <title>chips</title>
    <desc>Created with Sketch.</desc>
    <defs></defs>
    <g id="chips" stroke="none" stroke-width="1" fill="none" fill-rule="evenodd">
        <g id="download">
            <path d="M2,2 L2,22 L22,22 L22,2 L2,2 Z M4,20 L4,4 L20,4 L20,20 L4,20 Z M16.5,13.5 L7.5,13.5 C6.67,13.5 6,12.83 6,12 C6,11.17 6.67,10.5 7.5,10.5 L16.5,10.5 C17.33,10.5 18,11.17 18,12 C18,12.83 17.33,13.5 16.5,13.5 Z" id="Shape" fill="#000000" fill-rule="nonzero"></path>
            <polygon id="Shape" points="0 0 24 0 24 24 0 24"></polygon>
        </g>
    </g>
</svg>