<?xml version="1.0" encoding="UTF-8"?>
<svg width="24px" height="24px" viewBox="0 0 24 24" version="1.1" xmlns="http://www.w3.org/2000/svg" xmlns:xlink="http://www.w3.org/1999/xlink">
    <!-- Generator: Sketch 51.3 (57544) - http://www.bohemiancoding.com/sketch -->
    <title>textarea</title>
    <desc>Created with Sketch.</desc>
    <defs></defs>
    <g id="textarea" stroke="none" stroke-width="1" fill="none" fill-rule="evenodd">
        <path d="M2,19 L22,19 L22,21 L2,21 L2,19 Z M19,3 L20,3 L20,8.8 L19,8.8 L19,3 Z" id="Shape" fill="#000000" fill-rule="nonzero"></path>
        <path d="M6.640625,7.359375 L4.4140625,7.359375 L3.9609375,8.6875 L3,8.6875 L5.08984375,3 L5.98828125,3 L8.0546875,8.6875 L7.08984375,8.6875 L6.640625,7.359375 Z M4.6875,6.56640625 L6.37109375,6.56640625 L5.546875,4.13671875 L5.5234375,4.13671875 L4.6875,6.56640625 Z M11.5148437,8.6875 L11.5148437,3 L13.4054687,3 C14.0356802,3 14.5278628,3.129556 14.8820312,3.38867188 C15.2361996,3.64778775 15.4132812,4.03515367 15.4132812,4.55078125 C15.4132812,4.80859504 15.3390632,5.03906148 15.190625,5.2421875 C15.0421867,5.44531352 14.8364596,5.59635367 14.5734375,5.6953125 C14.9119808,5.77083371 15.1723949,5.9335925 15.3546875,6.18359375 C15.53698,6.433595 15.628125,6.72395668 15.628125,7.0546875 C15.628125,7.58854434 15.4536475,7.99413924 15.1046875,8.27148438 C14.7557274,8.54882951 14.2739614,8.6875 13.659375,8.6875 L11.5148437,8.6875 Z M12.4640625,6.1015625 L12.4640625,7.9296875 L13.659375,7.9296875 C13.9875016,7.9296875 14.2401032,7.85481846 14.4171875,7.70507812 C14.5942717,7.55533779 14.6828125,7.33854309 14.6828125,7.0546875 C14.6828125,6.75260266 14.6085944,6.51823 14.4601562,6.3515625 C14.311718,6.184895 14.0799494,6.1015625 13.7648437,6.1015625 L12.4640625,6.1015625 Z M12.4640625,5.39453125 L13.5109375,5.39453125 C13.8052098,5.39453125 14.0376293,5.32487049 14.2082031,5.18554688 C14.3787768,5.04622326 14.4640625,4.84895961 14.4640625,4.59375 C14.4640625,4.31249859 14.3742196,4.10351631 14.1945312,3.96679688 C14.0148428,3.83007744 13.7518246,3.76171875 13.4054687,3.76171875 L12.4640625,3.76171875 L12.4640625,5.39453125 Z M7.70703125,14.8007812 L7.71484375,14.8242188 C7.72526047,15.3997425 7.53841338,15.8678367 7.15429688,16.2285156 C6.77018037,16.5891945 6.25000328,16.7695312 5.59375,16.7695312 C4.92968418,16.7695312 4.38997604,16.5462262 3.97460938,16.0996094 C3.55924271,15.6529926 3.3515625,15.0820347 3.3515625,14.3867188 L3.3515625,13.3046875 C3.3515625,12.6119757 3.55663857,12.0410179 3.96679688,11.5917969 C4.37695518,11.1425759 4.91015297,10.9179688 5.56640625,10.9179688 C6.23828461,10.9179688 6.76757619,11.0943993 7.15429688,11.4472656 C7.54101756,11.800132 7.72916672,12.2747366 7.71875,12.8710938 L7.7109375,12.8945312 L6.79296875,12.8945312 C6.79296875,12.5117168 6.68945416,12.2135427 6.48242188,12 C6.27538959,11.7864573 5.9700541,11.6796875 5.56640625,11.6796875 C5.17838348,11.6796875 4.87044385,11.8333318 4.64257812,12.140625 C4.4147124,12.4479182 4.30078125,12.833331 4.30078125,13.296875 L4.30078125,14.3867188 C4.30078125,14.8554711 4.41731654,15.243488 4.65039062,15.5507812 C4.88346471,15.8580745 5.19791469,16.0117188 5.59375,16.0117188 C5.98698113,16.0117188 6.28515523,15.9062511 6.48828125,15.6953125 C6.69140727,15.4843739 6.79296875,15.1861998 6.79296875,14.8007812 L7.70703125,14.8007812 Z M11.4445312,16.6875 L11.4445312,11 L13.2882812,11 C14.009639,11 14.5962217,11.2252582 15.0480468,11.6757812 C15.499872,12.1263043 15.7257812,12.7057256 15.7257812,13.4140625 L15.7257812,14.2773438 C15.7257812,14.9882848 15.499872,15.5677061 15.0480468,16.015625 C14.5962217,16.4635439 14.009639,16.6875 13.2882812,16.6875 L11.4445312,16.6875 Z M12.39375,11.7617188 L12.39375,15.9296875 L13.2609375,15.9296875 C13.732294,15.9296875 14.102733,15.7760432 14.3722656,15.46875 C14.6417982,15.1614568 14.7765625,14.7643254 14.7765625,14.2773438 L14.7765625,13.40625 C14.7765625,12.9244768 14.6417982,12.5299495 14.3722656,12.2226562 C14.102733,11.915363 13.732294,11.7617188 13.2609375,11.7617188 L12.39375,11.7617188 Z" id="AB-CD" fill="#000000"></path>
    </g>
</svg>