<?xml version="1.0" encoding="UTF-8"?>
<svg width="100px" height="100px" viewBox="0 0 100 100" version="1.1" xmlns="http://www.w3.org/2000/svg" xmlns:xlink="http://www.w3.org/1999/xlink">
    <!-- Generator: Sketch 51.3 (57544) - http://www.bohemiancoding.com/sketch -->
    <title>github</title>
    <desc>Created with Sketch.</desc>
    <defs></defs>
    <g id="github" stroke="none" stroke-width="1" fill="none" fill-rule="evenodd">
        <path d="M49.9953958,0 C22.3886553,0 0,22.9521025 0,51.266934 C0,73.9169109 14.3251788,93.1302094 34.1938058,99.9091521 C36.6954173,100.381223 37.6070475,98.7982111 37.6070475,97.438646 C37.6070475,96.2238494 37.564075,92.9980295 37.5395193,88.7210643 C23.6317873,91.8178514 20.6973817,81.8477074 20.6973817,81.8477074 C18.4229105,75.9247872 15.1447251,74.3480693 15.1447251,74.3480693 C10.6049909,71.1694565 15.4885049,71.2323993 15.4885049,71.2323993 C20.5070751,71.5943206 23.1468124,76.5164498 23.1468124,76.5164498 C27.6067405,84.3496848 34.8506707,82.0868901 37.6991313,80.7745321 C38.1534117,77.4637393 39.4456552,75.2040918 40.872955,73.9232052 C29.7707112,72.6297301 18.0975475,68.2300264 18.0975475,48.5855695 C18.0975475,42.989952 20.0466558,38.4108612 23.2450351,34.8294143 C22.7293655,33.532792 21.0135363,28.3179787 23.7361491,21.2620876 C23.7361491,21.2620876 27.9321035,19.8836396 37.484269,26.5178138 C41.4715,25.3785486 45.75033,24.8120631 50.0015347,24.7900331 C54.24967,24.8120631 58.5254305,25.3785486 62.5188005,26.5178138 C72.064827,19.8836396 76.2546426,21.2620876 76.2546426,21.2620876 C78.9833942,28.3179787 77.267565,33.532792 76.7549649,34.8294143 C79.9594831,38.4108612 81.8932441,42.989952 81.8932441,48.5855695 C81.8932441,68.2803806 70.2016636,72.6139944 59.0656558,73.8822924 C60.8582216,75.4653045 62.4574112,78.5935631 62.4574112,83.3772181 C62.4574112,90.228545 62.396022,95.7580725 62.396022,97.438646 C62.396022,98.8107997 63.2984438,100.4064 65.8338193,99.9060049 C85.6870991,93.1113266 100,73.9106167 100,51.266934 C100,22.9521025 77.6113447,0 49.9953958,0" id="Fill-4" fill="#161514"></path>
    </g>
</svg>