<?xml version="1.0" encoding="UTF-8"?>
<svg width="100px" height="100px" viewBox="0 0 100 100" version="1.1" xmlns="http://www.w3.org/2000/svg" xmlns:xlink="http://www.w3.org/1999/xlink">
    <!-- Generator: Sketch 51.3 (57544) - http://www.bohemiancoding.com/sketch -->
    <title>twitter</title>
    <desc>Created with Sketch.</desc>
    <defs></defs>
    <g id="twitter" stroke="none" stroke-width="1" fill="none" fill-rule="evenodd">
        <g id="iconmonstr-twitter-1" transform="translate(0.000000, 8.000000)" fill="#000000" fill-rule="nonzero">
            <path d="M100,10.6541667 C96.3208333,12.2875 92.3666667,13.3875 88.2166667,13.8833333 C92.4541667,11.3458333 95.7083333,7.325 97.2375,2.53333333 C93.275,4.88333333 88.8833333,6.59166667 84.2083333,7.5125 C80.4708333,3.525 75.1333333,1.03333333 69.2333333,1.03333333 C55.9875,1.03333333 46.2541667,13.3916667 49.2458333,26.2208333 C32.2,25.3666667 17.0833333,17.2 6.9625,4.7875 C1.5875,14.0083333 4.175,26.0708333 13.3083333,32.1791667 C9.95,32.0708333 6.78333333,31.15 4.02083333,29.6125 C3.79583333,39.1166667 10.6083333,48.0083333 20.475,49.9875 C17.5875,50.7708333 14.425,50.9541667 11.2083333,50.3375 C13.8166667,58.4875 21.3916667,64.4166667 30.375,64.5833333 C21.75,71.3458333 10.8833333,74.3666667 -1.77635684e-15,73.0833333 C9.07916667,78.9041667 19.8666667,82.3 31.45,82.3 C69.5416667,82.3 91.0625,50.1291667 89.7625,21.275 C93.7708333,18.3791667 97.25,14.7666667 100,10.6541667 Z" id="Shape"></path>
        </g>
    </g>
</svg>