<?xml version="1.0" encoding="UTF-8"?>
<svg width="1053px" height="251px" viewBox="0 0 1053 251" version="1.1" xmlns="http://www.w3.org/2000/svg" xmlns:xlink="http://www.w3.org/1999/xlink">
    <!-- Generator: Sketch 51.3 (57544) - http://www.bohemiancoding.com/sketch -->
    <title>logo-text</title>
    <desc>Created with Sketch.</desc>
    <defs></defs>
    <g id="logo-text" stroke="none" stroke-width="1" fill="none" fill-rule="evenodd">
        <path d="M364.355,158.848 L365.384,175.312 C356.171954,176.292005 340.492111,176.782 318.344,176.782 C311.581966,176.782 306.19202,174.944518 302.174,171.2695 C298.15598,167.594482 296.098,162.621031 296,156.349 L296,94.903 C296.098,88.6309686 298.15598,83.6575184 302.174,79.9825 C306.19202,76.3074816 311.581966,74.47 318.344,74.47 C340.492111,74.47 356.171954,74.9599951 365.384,75.94 L364.355,92.551 L325.4,92.551 C322.949988,92.551 321.186005,93.1389941 320.108,94.315 C319.029995,95.4910059 318.491,97.4019868 318.491,100.048 L318.491,115.483 L358.916,115.483 L358.916,131.653 L318.491,131.653 L318.491,151.204 C318.491,153.948014 319.029995,155.907994 320.108,157.084 C321.186005,158.260006 322.949988,158.848 325.4,158.848 L364.355,158.848 Z M407.304,74.911 L407.304,150.616 C407.304,153.262013 407.916494,155.172994 409.1415,156.349 C410.366506,157.525006 412.399986,158.113 415.242,158.113 L450.081,158.113 L451.11,175.165 C441.211951,176.243005 426.904094,176.782 408.186,176.782 C400.345961,176.782 394.515019,174.82202 390.693,170.902 C386.870981,166.98198 384.96,161.739033 384.96,155.173 L384.96,74.911 L407.304,74.911 Z M534.631,158.848 L535.66,175.312 C526.447954,176.292005 510.768111,176.782 488.62,176.782 C481.857966,176.782 476.46802,174.944518 472.45,171.2695 C468.43198,167.594482 466.374001,162.621031 466.276,156.349 L466.276,94.903 C466.374001,88.6309686 468.43198,83.6575184 472.45,79.9825 C476.46802,76.3074816 481.857966,74.47 488.62,74.47 C510.768111,74.47 526.447954,74.9599951 535.66,75.94 L534.631,92.551 L495.676,92.551 C493.225988,92.551 491.462005,93.1389941 490.384,94.315 C489.305995,95.4910059 488.767,97.4019868 488.767,100.048 L488.767,115.483 L529.192,115.483 L529.192,131.653 L488.767,131.653 L488.767,151.204 C488.767,153.948014 489.305995,155.907994 490.384,157.084 C491.462005,158.260006 493.225988,158.848 495.676,158.848 L534.631,158.848 Z M636.968,74.911 L658.577,74.911 C663.967027,74.911 666.759999,77.7039721 666.956,83.29 L670.925,176.341 L649.757,176.341 L646.376,92.404 L643.877,92.404 L628.589,155.173 C627.608995,159.975024 624.571026,162.376 619.475,162.376 L604.775,162.376 C599.678975,162.376 596.641005,159.975024 595.661,155.173 L580.226,92.404 L577.727,92.404 L574.787,176.341 L553.619,176.341 L557.294,83.29 C557.588002,77.7039721 560.380974,74.911 565.673,74.911 L587.282,74.911 C592.084024,74.911 595.023995,77.311976 596.102,82.114 L608.45,132.682 C609.234004,135.916016 610.115995,140.668969 611.096,146.941 L613.007,146.941 C613.105001,146.450998 613.472497,144.442018 614.1095,140.914 C614.746503,137.385982 615.260998,134.64201 615.653,132.682 L627.854,82.114 C629.030006,77.311976 632.067976,74.911 636.968,74.911 Z M760.62,158.848 L761.649,175.312 C752.436954,176.292005 736.757111,176.782 714.609,176.782 C707.846966,176.782 702.45702,174.944518 698.439,171.2695 C694.42098,167.594482 692.363001,162.621031 692.265,156.349 L692.265,94.903 C692.363001,88.6309686 694.42098,83.6575184 698.439,79.9825 C702.45702,76.3074816 707.846966,74.47 714.609,74.47 C736.757111,74.47 752.436954,74.9599951 761.649,75.94 L760.62,92.551 L721.665,92.551 C719.214988,92.551 717.451006,93.1389941 716.373,94.315 C715.294995,95.4910059 714.756,97.4019868 714.756,100.048 L714.756,115.483 L755.181,115.483 L755.181,131.653 L714.756,131.653 L714.756,151.204 C714.756,153.948014 715.294995,155.907994 716.373,157.084 C717.451006,158.260006 719.214988,158.848 721.665,158.848 L760.62,158.848 Z M867.073,74.911 L867.073,168.256 C867.073,173.646027 864.427027,176.341 859.135,176.341 L845.17,176.341 C842.915989,176.341 841.152007,175.826505 839.878,174.7975 C838.603994,173.768495 837.379006,172.078012 836.203,169.726 L809.596,115.63 C806.263984,108.475964 804.206004,103.233017 803.422,99.901 L801.805,99.901 C802.491004,104.801025 802.834,110.190971 802.834,116.071 L802.834,176.341 L781.519,176.341 L781.519,82.996 C781.519,77.605973 784.213973,74.911 789.604,74.911 L803.275,74.911 C805.529012,74.911 807.292994,75.4254949 808.567,76.4545 C809.841007,77.4835051 811.065994,79.1739882 812.242,81.526 L837.967,134.005 C840.417012,138.905024 842.866988,144.34397 845.317,150.322 L846.787,150.322 C846.198997,142.677962 845.905,136.994019 845.905,133.27 L845.905,74.911 L867.073,74.911 Z M966.764,93.139 L936.482,93.139 L936.482,176.341 L913.991,176.341 L913.991,93.139 L883.709,93.139 L883.709,74.911 L966.764,74.911 L966.764,93.139 Z M1020.885,137.974 L1000.452,130.771 C992.905963,128.026986 987.516017,124.303024 984.282,119.599 C981.047984,114.894976 979.431,108.721038 979.431,101.077 C979.431,89.9049441 982.150473,82.4325189 987.5895,78.6595 C993.028528,74.8864811 1002.60793,73 1016.328,73 C1029.26407,73 1040.38695,74.3229868 1049.697,76.969 L1048.227,92.257 C1039.70096,91.9629985 1029.11706,91.816 1016.475,91.816 C1010.59497,91.816 1006.67501,92.3304949 1004.715,93.3595 C1002.75499,94.3885051 1001.775,96.9609794 1001.775,101.077 C1001.775,104.409017 1002.50999,106.809993 1003.98,108.28 C1005.45001,109.750007 1008.24298,111.170993 1012.359,112.543 L1031.616,119.158 C1039.45604,121.902014 1044.99298,125.650476 1048.227,130.4035 C1051.46102,135.156524 1053.078,141.354962 1053.078,148.999 C1053.078,160.367057 1050.33403,168.08448 1044.846,172.1515 C1039.35797,176.21852 1029.55807,178.252 1015.446,178.252 C1003.97994,178.252 992.367059,176.978013 980.607,174.43 L981.93,158.26 C1002.8041,158.750002 1013.97599,158.995 1015.446,158.995 C1021.42403,158.995 1025.41749,158.358006 1027.4265,157.084 C1029.43551,155.809994 1030.44,153.16402 1030.44,149.146 C1030.44,145.715983 1029.75401,143.290507 1028.382,141.8695 C1027.00999,140.448493 1024.51102,139.150006 1020.885,137.974 Z" id="ELEMENTS" fill="#000000"></path>
        <g id="logo">
            <g id="Group" stroke-width="1" fill-rule="evenodd" fill="#92F2BA">
                <path d="M127.468597,40.9345414 C127.468597,40.9345414 -3.69207764,29.76722 0.080428832,158.556883 C0.27384198,165.17555 6.52815997,169.925642 12.9567416,168.385124 C12.9567416,168.385124 21.016884,166.890648 20.9670943,158.658561 C20.8158114,133.657267 32.9088973,57.7574657 127.047302,64.0806905 L127.468597,40.9345414 Z" id="Shape" fill-rule="nonzero"></path>
                <path d="M36.0360563,123 C36.0360563,123 24.7185364,254.400679 153.274841,250.621325 C159.881515,250.425642 164.623001,244.159971 163.085274,237.719721 C163.085274,237.719721 161.595421,229.646866 153.376335,229.694827 C128.420341,229.846385 52.6580656,217.731347 58.9698331,123.423978 L36.0360563,123 Z" id="Shape" fill-rule="nonzero"></path>
                <path d="M123.531403,216.555589 C123.531403,216.555589 254.692078,227.632743 250.919571,98.8449979 C250.726158,92.224413 244.47184,87.4743206 238.043258,89.0148394 C238.043258,89.0148394 229.983116,90.5093148 230.032906,98.7414016 C230.184189,123.742696 218.091103,199.642497 123.952698,193.319272 L123.531403,216.555589 Z" id="Shape" fill-rule="nonzero"></path>
                <path d="M211.168457,127.699399 C211.168457,127.699399 222.22554,-3.69936237 93.669235,0.079992041 C87.062561,0.273756278 82.3210754,6.53942726 83.8588029,12.9796782 C83.8588029,12.9796782 85.3505704,21.0544515 93.5677413,21.0045715 C118.523735,20.853014 194.286011,32.9680515 187.974243,127.277339 L211.168457,127.699399 Z" id="Shape" fill-rule="nonzero"></path>
            </g>
            <path d="M123.5,217 C75.2531935,217 36,177.522503 36,129 C36,80.4774975 75.2531935,41 123.5,41 C171.746806,41 211,80.4774975 211,129 C211,177.522503 171.748717,217 123.5,217 Z" id="Shape" fill="#51C180" fill-rule="nonzero"></path>
            <path d="M123.5,181 C94.5512235,181 71,157.449206 71,128.500956 C71,99.5527055 94.5512235,76 123.5,76 C152.448777,76 176,99.5527055 176,128.500956 C176,157.449206 152.448777,181 123.5,181 Z" id="Shape" fill="#40A569" fill-rule="nonzero"></path>
            <path d="M152,128.5 C152,144.792604 139.016458,158 123,158 C106.983542,158 94,144.792604 94,128.5 C94,112.207396 106.983542,99 123,99 C139.016458,99 152,112.207396 152,128.5 Z" id="Shape" fill="#065125" fill-rule="nonzero"></path>
        </g>
    </g>
</svg>