<?xml version="1.0" encoding="UTF-8"?>
<svg width="251px" height="251px" viewBox="0 0 251 251" version="1.1" xmlns="http://www.w3.org/2000/svg" xmlns:xlink="http://www.w3.org/1999/xlink">
    <!-- Generator: Sketch 51.3 (57544) - http://www.bohemiancoding.com/sketch -->
    <title>logo</title>
    <desc>Created with Sketch.</desc>
    <defs></defs>
    <g id="logo" stroke="none" stroke-width="1" fill="none" fill-rule="evenodd">
        <g>
            <g id="Group" stroke-width="1" fill-rule="evenodd" fill="#92F2BA">
                <path d="M127.468597,40.9345414 C127.468597,40.9345414 -3.69207764,29.76722 0.080428832,158.556883 C0.27384198,165.17555 6.52815997,169.925642 12.9567416,168.385124 C12.9567416,168.385124 21.016884,166.890648 20.9670943,158.658561 C20.8158114,133.657267 32.9088973,57.7574657 127.047302,64.0806905 L127.468597,40.9345414 Z" id="Shape" fill-rule="nonzero"></path>
                <path d="M36.0360563,123 C36.0360563,123 24.7185364,254.400679 153.274841,250.621325 C159.881515,250.425642 164.623001,244.159971 163.085274,237.719721 C163.085274,237.719721 161.595421,229.646866 153.376335,229.694827 C128.420341,229.846385 52.6580656,217.731347 58.9698331,123.423978 L36.0360563,123 Z" id="Shape" fill-rule="nonzero"></path>
                <path d="M123.531403,216.555589 C123.531403,216.555589 254.692078,227.632743 250.919571,98.8449979 C250.726158,92.224413 244.47184,87.4743206 238.043258,89.0148394 C238.043258,89.0148394 229.983116,90.5093148 230.032906,98.7414016 C230.184189,123.742696 218.091103,199.642497 123.952698,193.319272 L123.531403,216.555589 Z" id="Shape" fill-rule="nonzero"></path>
                <path d="M211.168457,127.699399 C211.168457,127.699399 222.22554,-3.69936237 93.669235,0.079992041 C87.062561,0.273756278 82.3210754,6.53942726 83.8588029,12.9796782 C83.8588029,12.9796782 85.3505704,21.0544515 93.5677413,21.0045715 C118.523735,20.853014 194.286011,32.9680515 187.974243,127.277339 L211.168457,127.699399 Z" id="Shape" fill-rule="nonzero"></path>
            </g>
            <path d="M123.5,217 C75.2531935,217 36,177.522503 36,129 C36,80.4774975 75.2531935,41 123.5,41 C171.746806,41 211,80.4774975 211,129 C211,177.522503 171.748717,217 123.5,217 Z" id="Shape" fill="#51C180" fill-rule="nonzero"></path>
            <path d="M123.5,181 C94.5512235,181 71,157.449206 71,128.500956 C71,99.5527055 94.5512235,76 123.5,76 C152.448777,76 176,99.5527055 176,128.500956 C176,157.449206 152.448777,181 123.5,181 Z" id="Shape" fill="#40A569" fill-rule="nonzero"></path>
            <path d="M152,128.5 C152,144.792604 139.016458,158 123,158 C106.983542,158 94,144.792604 94,128.5 C94,112.207396 106.983542,99 123,99 C139.016458,99 152,112.207396 152,128.5 Z" id="Shape" fill="#065125" fill-rule="nonzero"></path>
        </g>
    </g>
</svg>