<svg width="362" height="330" xmlns="http://www.w3.org/2000/svg" xmlns:xlink="http://www.w3.org/1999/xlink"><defs><path d="M203.814 36.078c0 19.707-45.478 35.586-101.548 35.586S.718 55.644.718 36.078C.718 16.372 46.196.493 102.266.493s101.548 15.879 101.548 35.585z" id="a"/><path d="M14.286 74.927c2.263 10.566 7.779 16.764 13.295 20.427h58.132C92.785 90.564 100 81.548 100 64.642V20.97s.848-10.848 10.89-14.37c0 0 5.8-4.086-.424-6.34 0 0-27.58-2.254-27.58 20.287v33.248s1.13 12.257-5.375 17.329V29.985s.424-13.102 7.213-18.033c0 0 4.526-8.03-5.375-5.917 0 0-18.953 2.677-19.801 24.795l-.425 42.265h-4.526l-.424-42.265C53.323 8.853 34.37 6.035 34.37 6.035c-9.9-2.254-5.375 5.917-5.375 5.917 6.79 4.931 7.214 18.033 7.214 18.033v41.56c-6.506-4.649-5.375-17.75-5.375-17.75V20.545C30.834-1.995 3.254.26 3.254.26c-6.366 2.254-.425 6.34-.425 6.34 9.9 3.663 10.89 14.37 10.89 14.37V51.54l.567 23.387z" id="c"/><path d="M87.643 29.462l13.298 26.945a6.347 6.347 0 0 0 4.78 3.472l29.737 4.321c5.209.758 7.287 7.157 3.52 10.83L117.46 96.002a6.35 6.35 0 0 0-1.825 5.62l5.079 29.615c.89 5.187-4.555 9.141-9.213 6.694l-26.595-13.981a6.356 6.356 0 0 0-5.91 0L52.4 137.932c-4.658 2.45-10.103-1.507-9.213-6.694l5.079-29.616a6.35 6.35 0 0 0-1.825-5.62L24.924 75.03c-3.768-3.674-1.69-10.073 3.52-10.829l29.736-4.32a6.347 6.347 0 0 0 4.78-3.473L76.26 29.462c2.326-4.72 9.055-4.72 11.384 0z" id="f"/><filter x="-41.1%" y="-51%" width="200.9%" height="205.5%" filterUnits="objectBoundingBox" id="e"><feMorphology radius="3" operator="dilate" in="SourceAlpha" result="shadowSpreadOuter1"/><feOffset dx="11" dy="2" in="shadowSpreadOuter1" result="shadowOffsetOuter1"/><feGaussianBlur stdDeviation="17" in="shadowOffsetOuter1" result="shadowBlurOuter1"/><feComposite in="shadowBlurOuter1" in2="SourceAlpha" operator="out" result="shadowBlurOuter1"/><feColorMatrix values="0 0 0 0 0 0 0 0 0 0 0 0 0 0 0 0 0 0 0.5 0" in="shadowBlurOuter1"/></filter><path d="M198.241 29.712l13.298 26.945a6.347 6.347 0 0 0 4.78 3.472l29.737 4.321c5.209.758 7.287 7.157 3.52 10.829l-21.518 20.973a6.35 6.35 0 0 0-1.824 5.62l5.078 29.616c.89 5.186-4.555 9.141-9.213 6.694l-26.595-13.981a6.356 6.356 0 0 0-5.91 0l-26.596 13.981c-4.658 2.45-10.103-1.508-9.212-6.694l5.078-29.616a6.35 6.35 0 0 0-1.825-5.62L135.522 75.28c-3.767-3.674-1.69-10.074 3.52-10.829l29.736-4.32a6.347 6.347 0 0 0 4.78-3.473l13.299-26.945c2.326-4.72 9.055-4.72 11.384 0z" id="h"/><filter x="-41.1%" y="-51%" width="200.9%" height="205.5%" filterUnits="objectBoundingBox" id="g"><feMorphology radius="3" operator="dilate" in="SourceAlpha" result="shadowSpreadOuter1"/><feOffset dx="11" dy="2" in="shadowSpreadOuter1" result="shadowOffsetOuter1"/><feGaussianBlur stdDeviation="17" in="shadowOffsetOuter1" result="shadowBlurOuter1"/><feComposite in="shadowBlurOuter1" in2="SourceAlpha" operator="out" result="shadowBlurOuter1"/><feColorMatrix values="0 0 0 0 0 0 0 0 0 0 0 0 0 0 0 0 0 0 0.5 0" in="shadowBlurOuter1"/></filter></defs><g fill="none" fill-rule="evenodd"><g transform="translate(80 258)"><mask id="b" fill="#fff"><use xlink:href="#a"/></mask><use fill="#9EDCF2" fill-rule="nonzero" xlink:href="#a"/><g mask="url(#b)"><g transform="translate(44.114 24.795)"><mask id="d" fill="#fff"><use xlink:href="#c"/></mask><path d="M159.687 11.53c0 19.582-45.544 35.361-101.696 35.361S-43.705 30.971-43.705 11.53c0-19.583 45.544-35.362 101.696-35.362S159.687-8.052 159.687 11.53z" fill="#7DBCE7" fill-rule="nonzero" mask="url(#d)"/></g></g></g><path d="M66.423 189.926L63.42 200.24s-.715 3.725 2.716 4.441c3.717-.143 3.43-3.581 3.145-4.584l-2.86-10.17z" fill="#9EDCF2" fill-rule="nonzero"/><path d="M360.778 147.056l.282-1.272c-29.759-5.935-60.223-6.076-78.7-5.229 2.962-10.881 3.95-23.6 3.95-37.59 0-20.209-7.617-36.32-19.746-48.473 2.116-6.924 4.936-22.328-2.82-41.971 0 0-13.823-4.381-45.274 16.675-12.27-3.109-25.387-4.663-38.504-4.663-14.386 0-28.913 1.837-42.594 5.511C104.933 7.857 90.688 12.38 90.688 12.38c-9.308 23.318-3.526 40.7-1.833 44.94-11.001 11.87-17.63 26.992-17.63 45.504 0 13.99 1.551 26.568 5.5 37.45-18.617-.707-47.953-.424-76.725 5.37l.282 1.272c28.772-5.794 58.39-5.936 76.866-5.229.847 2.261 1.834 4.522 2.821 6.642-18.335.565-49.505 2.968-79.405 11.447l.423 1.272c30.183-8.48 61.634-10.74 79.828-11.306 11.001 20.35 32.44 33.634 70.802 37.732-5.5 3.675-11.001 9.893-13.258 20.492-7.475 3.532-30.887 12.294-44.991-12.013 0 0-7.898-14.414-22.99-15.545 0 0-14.668-.282-.987 9.186 0 0 9.732 4.664 16.502 22.046 0 0 8.885 29.677 51.338 20.067v30.384s-.846 10.881-10.86 14.414c0 0-5.924 4.098.423 6.36 0 0 27.503 2.26 27.503-20.35v-33.352s-1.128-13.284 5.36-17.806v54.832s-.424 13.143-7.194 18.089c0 0-4.513 8.055 5.36 5.935 0 0 18.9-2.685 19.745-24.872l.423-55.538h4.514l.423 55.538c.846 22.046 19.745 24.872 19.745 24.872 9.873 2.261 5.36-5.935 5.36-5.935-6.77-4.946-7.193-18.09-7.193-18.09V211.78c6.488 5.088 5.36 17.382 5.36 17.382v33.352c0 22.61 27.502 20.35 27.502 20.35 6.347-2.262.423-6.36.423-6.36-9.873-3.674-10.86-14.414-10.86-14.414v-43.81c0-17.099-7.193-26.143-14.245-30.807 40.901-4.098 60.506-17.24 69.532-37.873 17.912.424 50.21 2.685 80.957 11.447l.423-1.272c-30.606-8.62-62.621-10.882-80.816-11.447.847-2.12 1.552-4.24 2.257-6.5 18.9-.707 49.505-.707 79.405 5.228z" fill="#010101" fill-rule="nonzero"/><path d="M246.41 101.617c8.749 8.058 13.97 17.671 13.97 27.991 0 48.63-36.125 49.903-80.718 49.903-44.592 0-80.718-6.786-80.718-49.903 0-10.32 5.08-19.933 13.83-27.85 14.535-13.288 39.089-6.22 66.888-6.22 27.8 0 52.213-7.21 66.748 6.08z" fill="#F5CCB3" fill-rule="nonzero"/><path d="M77.058 184.093c0 1.13-1.262 1.978-2.944 1.978-1.542 0-2.943-.848-2.943-1.978s1.261-1.978 2.943-1.978c1.682 0 2.944.848 2.944 1.978zm8.13 4.521c0 1.13-1.262 1.978-2.944 1.978-1.542 0-2.943-.847-2.943-1.978 0-1.13 1.261-1.978 2.943-1.978 1.682 0 2.944.848 2.944 1.978zm4.906 5.935c0 1.13-1.261 1.978-2.944 1.978-1.541 0-2.943-.848-2.943-1.978s1.261-1.979 2.943-1.979c1.683-.14 2.944.848 2.944 1.979zm4.486 6.782c0 1.13-1.262 1.978-2.944 1.978-1.542 0-2.944-.848-2.944-1.978s1.262-1.979 2.944-1.979c1.682-.14 2.944.848 2.944 1.979zm4.906 6.216c0 1.13-1.262 1.978-2.944 1.978-1.542 0-2.943-.847-2.943-1.978 0-1.13 1.261-1.978 2.943-1.978 1.682 0 2.944.848 2.944 1.978zm6.728 5.51c0 1.131-1.261 1.979-2.943 1.979-1.542 0-2.944-.848-2.944-1.978s1.262-1.978 2.944-1.978c1.682-.142 2.943.847 2.943 1.978zm9.392 3.533c0 1.13-1.262 1.978-2.944 1.978-1.542 0-2.943-.848-2.943-1.978s1.261-1.978 2.943-1.978c1.682 0 2.944.848 2.944 1.978zm9.392 0c0 1.13-1.262 1.978-2.944 1.978-1.542 0-2.944-.848-2.944-1.978s1.262-1.978 2.944-1.978 2.944.848 2.944 1.978zm9.532-1.554c0 1.13-1.262 1.978-2.944 1.978-1.542 0-2.944-.848-2.944-1.978s1.262-1.978 2.944-1.978c1.542 0 2.944.847 2.944 1.978z" fill="#C4E5D9" fill-rule="nonzero"/><g fill-rule="nonzero"><path d="M135 128c0 25.404 20.595 46 45.999 46C206.404 174 227 153.404 227 128h-92z" fill="#333"/><path d="M156 146c0 14.126 11.453 25.578 25.577 25.578 14.127 0 25.579-11.453 25.579-25.578H156z" fill="#CA2027"/></g><g fill-rule="nonzero"><g transform="rotate(45 109.986 132.912)"><use fill="#000" filter="url(#e)" xlink:href="#f"/><use stroke="#FECC27" stroke-width="6" fill="#FFF300" xlink:href="#f"/></g><g transform="scale(-1 1) rotate(45 -15.964 -437.918)"><use fill="#000" filter="url(#g)" xlink:href="#h"/><use stroke="#FECC27" stroke-width="6" fill="#FFF300" xlink:href="#h"/></g></g></g></svg>