<?xml version="1.0" encoding="UTF-8"?>
<svg width="758px" height="106px" viewBox="0 0 758 106" version="1.1" xmlns="http://www.w3.org/2000/svg" xmlns:xlink="http://www.w3.org/1999/xlink">
    <!-- Generator: Sketch 51.3 (57544) - http://www.bohemiancoding.com/sketch -->
    <title>text</title>
    <desc>Created with Sketch.</desc>
    <defs></defs>
    <g id="text" stroke="none" stroke-width="1" fill="none" fill-rule="evenodd">
        <path d="M68.355,85.848 L69.384,102.312 C60.1719539,103.292005 44.4921107,103.782 22.344,103.782 C15.5819662,103.782 10.1920201,101.944518 6.174,98.2695 C2.15597991,94.5944816 0.09800049,89.6210314 0,83.349 L0,21.903 C0.09800049,15.6309686 2.15597991,10.6575184 6.174,6.9825 C10.1920201,3.30748162 15.5819662,1.47 22.344,1.47 C44.4921107,1.47 60.1719539,1.9599951 69.384,2.94 L68.355,19.551 L29.4,19.551 C26.9499878,19.551 25.1860054,20.1389941 24.108,21.315 C23.0299946,22.4910059 22.491,24.4019868 22.491,27.048 L22.491,42.483 L62.916,42.483 L62.916,58.653 L22.491,58.653 L22.491,78.204 C22.491,80.9480137 23.0299946,82.9079941 24.108,84.084 C25.1860054,85.2600059 26.9499878,85.848 29.4,85.848 L68.355,85.848 Z M111.304,1.911 L111.304,77.616 C111.304,80.2620132 111.916494,82.1729941 113.1415,83.349 C114.366506,84.5250059 116.399986,85.113 119.242,85.113 L154.081,85.113 L155.11,102.165 C145.211951,103.243005 130.904094,103.782 112.186,103.782 C104.345961,103.782 98.5150192,101.82202 94.693,97.902 C90.8709809,93.9819804 88.96,88.7390328 88.96,82.173 L88.96,1.911 L111.304,1.911 Z M238.631,85.848 L239.66,102.312 C230.447954,103.292005 214.768111,103.782 192.62,103.782 C185.857966,103.782 180.46802,101.944518 176.45,98.2695 C172.43198,94.5944816 170.374001,89.6210314 170.276,83.349 L170.276,21.903 C170.374001,15.6309686 172.43198,10.6575184 176.45,6.9825 C180.46802,3.30748162 185.857966,1.47 192.62,1.47 C214.768111,1.47 230.447954,1.9599951 239.66,2.94 L238.631,19.551 L199.676,19.551 C197.225988,19.551 195.462005,20.1389941 194.384,21.315 C193.305995,22.4910059 192.767,24.4019868 192.767,27.048 L192.767,42.483 L233.192,42.483 L233.192,58.653 L192.767,58.653 L192.767,78.204 C192.767,80.9480137 193.305995,82.9079941 194.384,84.084 C195.462005,85.2600059 197.225988,85.848 199.676,85.848 L238.631,85.848 Z M340.968,1.911 L362.577,1.911 C367.967027,1.911 370.759999,4.70397207 370.956,10.29 L374.925,103.341 L353.757,103.341 L350.376,19.404 L347.877,19.404 L332.589,82.173 C331.608995,86.975024 328.571026,89.376 323.475,89.376 L308.775,89.376 C303.678975,89.376 300.641005,86.975024 299.661,82.173 L284.226,19.404 L281.727,19.404 L278.787,103.341 L257.619,103.341 L261.294,10.29 C261.588002,4.70397207 264.380974,1.911 269.673,1.911 L291.282,1.911 C296.084024,1.911 299.023995,4.31197599 300.102,9.114 L312.45,59.682 C313.234004,62.9160162 314.115995,67.6689686 315.096,73.941 L317.007,73.941 C317.105001,73.4509976 317.472497,71.4420176 318.1095,67.914 C318.746503,64.3859824 319.260998,61.6420098 319.653,59.682 L331.854,9.114 C333.030006,4.31197599 336.067976,1.911 340.968,1.911 Z M464.62,85.848 L465.649,102.312 C456.436954,103.292005 440.757111,103.782 418.609,103.782 C411.846966,103.782 406.45702,101.944518 402.439,98.2695 C398.42098,94.5944816 396.363001,89.6210314 396.265,83.349 L396.265,21.903 C396.363001,15.6309686 398.42098,10.6575184 402.439,6.9825 C406.45702,3.30748162 411.846966,1.47 418.609,1.47 C440.757111,1.47 456.436954,1.9599951 465.649,2.94 L464.62,19.551 L425.665,19.551 C423.214988,19.551 421.451006,20.1389941 420.373,21.315 C419.294995,22.4910059 418.756,24.4019868 418.756,27.048 L418.756,42.483 L459.181,42.483 L459.181,58.653 L418.756,58.653 L418.756,78.204 C418.756,80.9480137 419.294995,82.9079941 420.373,84.084 C421.451006,85.2600059 423.214988,85.848 425.665,85.848 L464.62,85.848 Z M571.073,1.911 L571.073,95.256 C571.073,100.646027 568.427027,103.341 563.135,103.341 L549.17,103.341 C546.915989,103.341 545.152007,102.826505 543.878,101.7975 C542.603994,100.768495 541.379006,99.0780118 540.203,96.726 L513.596,42.63 C510.263984,35.4759642 508.206004,30.2330167 507.422,26.901 L505.805,26.901 C506.491004,31.8010245 506.834,37.1909706 506.834,43.071 L506.834,103.341 L485.519,103.341 L485.519,9.996 C485.519,4.60597305 488.213973,1.911 493.604,1.911 L507.275,1.911 C509.529012,1.911 511.292994,2.42549485 512.567,3.4545 C513.841007,4.48350514 515.065994,6.17398824 516.242,8.526 L541.967,61.005 C544.417012,65.9050245 546.866988,71.3439701 549.317,77.322 L550.787,77.322 C550.198997,69.6779618 549.905,63.9940186 549.905,60.27 L549.905,1.911 L571.073,1.911 Z M670.764,20.139 L640.482,20.139 L640.482,103.341 L617.991,103.341 L617.991,20.139 L587.709,20.139 L587.709,1.911 L670.764,1.911 L670.764,20.139 Z M724.885,64.974 L704.452,57.771 C696.905963,55.0269863 691.516017,51.3030235 688.282,46.599 C685.047984,41.8949765 683.431,35.7210382 683.431,28.077 C683.431,16.9049441 686.150473,9.43251887 691.5895,5.6595 C697.028528,1.88648113 706.607932,0 720.328,0 C733.264065,0 744.386954,1.32298677 753.697,3.969 L752.227,19.257 C743.700958,18.9629985 733.117064,18.816 720.475,18.816 C714.594971,18.816 710.67501,19.3304949 708.715,20.3595 C706.754991,21.3885051 705.775,23.9609794 705.775,28.077 C705.775,31.4090167 706.509993,33.8099926 707.98,35.28 C709.450008,36.7500073 712.24298,38.1709931 716.359,39.543 L735.616,46.158 C743.45604,48.9020137 748.992984,52.6504762 752.227,57.4035 C755.461017,62.1565238 757.078,68.3549618 757.078,75.999 C757.078,87.3670568 754.334028,95.0844797 748.846,99.1515 C743.357973,103.21852 733.558071,105.252 719.446,105.252 C707.979943,105.252 696.367059,103.978013 684.607,101.43 L685.93,85.26 C706.804105,85.7500025 717.975993,85.995 719.446,85.995 C725.42403,85.995 729.41749,85.3580064 731.4265,84.084 C733.43551,82.8099936 734.44,80.1640201 734.44,76.146 C734.44,72.7159829 733.754007,70.2905071 732.382,68.8695 C731.009993,67.4484929 728.511018,66.1500059 724.885,64.974 Z" id="ELEMENTS" fill="#000000"></path>
    </g>
</svg>