<?xml version="1.0" encoding="UTF-8"?>
<svg width="24px" height="24px" viewBox="0 0 24 24" version="1.1" xmlns="http://www.w3.org/2000/svg" xmlns:xlink="http://www.w3.org/1999/xlink">
    <!-- Generator: Sketch 50.2 (55047) - http://www.bohemiancoding.com/sketch -->
    <title>list</title>
    <desc>Created with Sketch.</desc>
    <defs></defs>
    <g id="list" stroke="none" stroke-width="1" fill="none" fill-rule="evenodd">
        <g id="download">
            <path d="M2,4 L6,4 L6,8 L2,8 L2,4 Z M8,4 L22,4 L22,8 L8,8 L8,4 Z M2,10 L6,10 L6,14 L2,14 L2,10 Z M8,10 L22,10 L22,14 L8,14 L8,10 Z M2,16 L6,16 L6,20 L2,20 L2,16 Z M8,16 L22,16 L22,20 L8,20 L8,16 Z" id="Shape" fill="#000000" fill-rule="nonzero"></path>
            <polygon id="Shape" points="0 0 24 0 24 24 0 24"></polygon>
        </g>
    </g>
</svg>