<?xml version="1.0" encoding="UTF-8"?>
<svg width="200px" height="200px" viewBox="0 0 200 200" version="1.1" xmlns="http://www.w3.org/2000/svg" xmlns:xlink="http://www.w3.org/1999/xlink">
    <!-- Generator: Sketch 51.3 (57544) - http://www.bohemiancoding.com/sketch -->
    <title>crystal</title>
    <desc>Created with Sketch.</desc>
    <defs></defs>
    <g id="crystal" stroke="none" stroke-width="1" fill="none" fill-rule="evenodd">
        <g id="crystal-ball" transform="translate(17.000000, 0.000000)" fill-rule="nonzero">
            <circle id="Oval" fill="#E6E6E6" cx="82.9145729" cy="82.9145729" r="82.9145729"></circle>
            <rect id="Rectangle-path" fill="#BFBFBF" x="17.0854271" y="154.773869" width="131.658291" height="21.1055276"></rect>
            <rect id="Rectangle-path" fill="#999999" x="0" y="175.879397" width="165.829146" height="24.120603"></rect>
            <rect id="Rectangle-path" fill="#BFBFBF" x="10.0502513" y="189.949749" width="7.03517588" height="10.0502513"></rect>
            <rect id="Rectangle-path" fill="#BFBFBF" x="24.120603" y="189.949749" width="7.03517588" height="10.0502513"></rect>
            <rect id="Rectangle-path" fill="#BFBFBF" x="148.743719" y="189.949749" width="7.03517588" height="10.0502513"></rect>
            <rect id="Rectangle-path" fill="#BFBFBF" x="134.673367" y="189.949749" width="7.03517588" height="10.0502513"></rect>
            <path d="M16.7051629,76.3819095 L10.0502513,74.5366859 C27.8093386,10.7869637 81.8701406,10.0502513 82.4120603,10.0502513 L82.4120603,16.935414 C80.4100641,16.935414 33.0145289,17.8098297 16.7051629,76.3819095 Z" id="Shape" fill="#FFFFFF" opacity="0.610435268"></path>
            <rect id="Rectangle-path" fill="#FFFFFF" opacity="0.610435268" x="89.4472362" y="10.0502513" width="7.03517588" height="7.03517588"></rect>
            <rect id="Rectangle-path" fill="#FFFFFF" opacity="0.610435268" x="82.4120603" y="72.361809" width="7.03517588" height="7.03517588"></rect>
            <rect id="Rectangle-path" fill="#FFFFFF" opacity="0.610435268" x="138.693467" y="62.3115578" width="7.03517588" height="7.03517588"></rect>
            <rect id="Rectangle-path" fill="#FFFFFF" opacity="0.610435268" x="141.708543" y="106.532663" width="7.03517588" height="7.03517588"></rect>
        </g>
    </g>
</svg>