<?xml version="1.0" encoding="UTF-8"?>
<svg width="200px" height="200px" viewBox="0 0 200 200" version="1.1" xmlns="http://www.w3.org/2000/svg" xmlns:xlink="http://www.w3.org/1999/xlink">
    <!-- Generator: Sketch 51.3 (57544) - http://www.bohemiancoding.com/sketch -->
    <title>feather</title>
    <desc>Created with Sketch.</desc>
    <defs></defs>
    <g id="feather" stroke="none" stroke-width="1" fill="none" fill-rule="evenodd">
        <g id="feather-(3)" fill-rule="nonzero">
            <path d="M198.286733,1.71326745 C197.120188,0.546722807 195.510478,-0.0746222222 193.862695,0.00761450292 C193.719542,0.0152290448 192.918494,0.0548245614 191.54788,0.167519688 C186.03192,0.619822222 171.265838,2.22496335 152.84174,7.39826979 C140.57779,10.8415571 125.312195,16.3148756 110.034418,24.8614156 C106.540875,26.8183478 103.050378,28.9336624 99.5918616,31.2256335 C91.8874877,36.3243177 84.3567251,42.2819201 77.4000975,49.2400706 C76.5868663,50.0517786 75.7873415,50.8756702 75.0015228,51.7041302 C71.6754994,55.2052873 68.5870491,58.8404604 65.7300803,62.5533018 C49.5157162,83.5785209 40.4696639,107.186586 35.5567739,124.681713 C30.3849903,143.105811 28.7798487,157.871893 28.3260234,163.389376 C28.2133287,164.758467 28.1752558,165.559515 28.1661185,165.704191 C28.0854043,167.351973 28.7052265,168.960161 29.8732943,170.126706 C30.9743544,171.227766 32.465278,171.841496 34.0155945,171.841496 C34.1084916,171.841496 34.2029119,171.841496 34.295809,171.833881 C34.440485,171.826267 35.2415326,171.786671 36.6121466,171.673977 C42.1281068,171.220151 56.8941887,169.616533 75.3182869,164.443226 C92.8134136,159.531859 116.423002,150.485807 137.446698,134.271442 C141.15954,131.412951 144.794713,128.324501 148.297393,124.998477 C149.12433,124.212658 149.948221,123.413134 150.759929,122.601425 C157.71808,115.643275 163.675682,108.112512 168.774366,100.409661 C171.066338,96.9496222 173.183175,93.4591251 175.138584,89.9655825 C183.685124,74.6878047 189.158443,59.4222101 192.60173,47.1582604 C197.775037,28.7341618 199.380178,13.9696027 199.83248,8.45212008 C199.946698,7.08150565 199.984771,6.2819809 199.992386,6.13730526 C200.074622,4.48952242 199.4548,2.88133528 198.286733,1.71326745 Z" id="Shape" fill="#E6E6E6"></path>
            <path d="M199.83248,8.45212008 L130.078887,78.2011454 L175.138584,89.9655825 C173.183175,93.4591251 171.066338,96.9496222 168.774366,100.409661 L120.483065,87.8015353 L96.7455532,111.536002 L148.297393,124.998477 C144.794713,128.324501 141.15954,131.412951 137.446698,134.271442 L87.1436405,121.136391 L36.6121466,171.673977 L10.3907774,197.893823 C9.24707602,199.039047 7.7470152,199.608614 6.24847719,199.608614 C4.74841637,199.608614 3.24987836,199.039047 2.106177,197.893823 C-0.182748538,195.606421 -0.182748538,191.898148 2.106177,189.609223 L28.3260234,163.389376 L78.8636086,112.856359 L65.7300803,62.5533018 C68.5870491,58.8404604 71.6754994,55.2052873 75.0015228,51.7041302 L88.4639984,103.25597 L112.198465,79.5169349 L99.5918616,31.2256335 C103.050378,28.9336624 106.540875,26.8183478 110.034418,24.8614156 L121.798855,69.9211135 L191.54788,0.167519688 C192.918494,0.0548245614 193.719542,0.0152290448 193.862695,0.00761450292 C195.510478,-0.0746222222 197.120188,0.546722807 198.286733,1.71326745 C199.4548,2.88133528 200.074622,4.48952242 199.992386,6.13730526 C199.984771,6.2819809 199.946698,7.08150565 199.83248,8.45212008 Z" id="Shape" fill="#BFBFBF"></path>
        </g>
    </g>
</svg>