<?xml version="1.0" encoding="UTF-8"?>
<svg width="200px" height="200px" viewBox="0 0 200 200" version="1.1" xmlns="http://www.w3.org/2000/svg" xmlns:xlink="http://www.w3.org/1999/xlink">
    <!-- Generator: Sketch 51.3 (57544) - http://www.bohemiancoding.com/sketch -->
    <title>laptop</title>
    <desc>Created with Sketch.</desc>
    <defs></defs>
    <g id="laptop" stroke="none" stroke-width="1" fill="none" fill-rule="evenodd">
        <g transform="translate(0.000000, 29.000000)" fill-rule="nonzero">
            <rect id="Rectangle-path" fill="#FFFFFF" x="18.75" y="12.884375" width="162.5" height="100"></rect>
            <rect id="Rectangle-path" fill="#999999" x="18.75" y="12.884375" width="162.5" height="25"></rect>
            <path d="M179.348828,0.384375 L20.6453125,0.384375 C12.7074219,0.384375 6.25,6.82695312 6.25,14.7460937 L6.25,128.509375 C6.25,130.236719 7.64765625,131.634375 9.375,131.634375 L190.625,131.634375 C192.352344,131.634375 193.75,130.236719 193.75,128.509375 L193.75,14.7460937 C193.75,6.82695312 187.289453,0.384375 179.348828,0.384375 Z M18.75,109.759375 L18.75,16.009375 C18.75,14.2835937 20.1492188,12.884375 21.875,12.884375 L178.125,12.884375 C179.850781,12.884375 181.25,14.2835937 181.25,16.009375 L181.25,109.759375 C181.25,111.485156 179.850781,112.884375 178.125,112.884375 L21.875,112.884375 C20.1492188,112.884375 18.75,111.485156 18.75,109.759375 Z" id="Shape" fill="#E6E6E6"></path>
            <path d="M196.875,125.384375 L3.125,125.384375 C1.39765625,125.384375 0,126.782031 0,128.509375 C0,135.409375 5.61210937,141.021484 12.5121094,141.021484 L187.4875,141.021484 C194.3875,141.021484 199.999609,135.409375 199.999609,128.509375 C200,126.782031 198.602344,125.384375 196.875,125.384375 Z" id="Shape" fill="#BFBFBF"></path>
            <path d="M56.25,28.509375 L34.375,28.509375 C32.6476563,28.509375 31.25,27.1117187 31.25,25.384375 C31.25,23.6570312 32.6476563,22.259375 34.375,22.259375 L56.25,22.259375 C57.9773438,22.259375 59.375,23.6570312 59.375,25.384375 C59.375,27.1117187 57.9773438,28.509375 56.25,28.509375 Z" id="Shape" fill="#E6E6E6"></path>
            <path d="M112.5,28.509375 L109.375,28.509375 C107.647656,28.509375 106.25,27.1117187 106.25,25.384375 C106.25,23.6570312 107.647656,22.259375 109.375,22.259375 L112.5,22.259375 C114.227344,22.259375 115.625,23.6570312 115.625,25.384375 C115.625,27.1117187 114.227344,28.509375 112.5,28.509375 Z" id="Shape" fill="#E6E6E6"></path>
            <path d="M128.125,28.509375 L125,28.509375 C123.272656,28.509375 121.875,27.1117187 121.875,25.384375 C121.875,23.6570312 123.272656,22.259375 125,22.259375 L128.125,22.259375 C129.852344,22.259375 131.25,23.6570312 131.25,25.384375 C131.25,27.1117187 129.852344,28.509375 128.125,28.509375 Z" id="Shape" fill="#E6E6E6"></path>
            <path d="M143.75,28.509375 L140.625,28.509375 C138.897656,28.509375 137.5,27.1117187 137.5,25.384375 C137.5,23.6570312 138.897656,22.259375 140.625,22.259375 L143.75,22.259375 C145.477344,22.259375 146.875,23.6570312 146.875,25.384375 C146.875,27.1117187 145.477344,28.509375 143.75,28.509375 Z" id="Shape" fill="#E6E6E6"></path>
            <path d="M159.375,28.509375 L156.25,28.509375 C154.522656,28.509375 153.125,27.1117187 153.125,25.384375 C153.125,23.6570312 154.522656,22.259375 156.25,22.259375 L159.375,22.259375 C161.102344,22.259375 162.5,23.6570312 162.5,25.384375 C162.5,27.1117187 161.102344,28.509375 159.375,28.509375 Z" id="Shape" fill="#E6E6E6"></path>
            <path d="M87.5,103.509375 L34.375,103.509375 C32.6492187,103.509375 31.25,102.110156 31.25,100.384375 L31.25,50.384375 C31.25,48.6585937 32.6492187,47.259375 34.375,47.259375 L87.5,47.259375 C89.2257813,47.259375 90.625,48.6585937 90.625,50.384375 L90.625,100.384375 C90.625,102.110156 89.2257813,103.509375 87.5,103.509375 Z" id="Shape" fill="#E6E6E6"></path>
            <path d="M162.5,53.509375 L103.125,53.509375 C101.397656,53.509375 100,52.1117188 100,50.384375 C100,48.6570313 101.397656,47.259375 103.125,47.259375 L162.5,47.259375 C164.227344,47.259375 165.625,48.6570313 165.625,50.384375 C165.625,52.1117188 164.227344,53.509375 162.5,53.509375 Z" id="Shape" fill="#4D4D4D"></path>
            <path d="M128.125,78.509375 L103.125,78.509375 C101.397656,78.509375 100,77.1117187 100,75.384375 C100,73.6570312 101.397656,72.259375 103.125,72.259375 L128.125,72.259375 C129.852344,72.259375 131.25,73.6570312 131.25,75.384375 C131.25,77.1117187 129.852344,78.509375 128.125,78.509375 Z" id="Shape" fill="#BFBFBF"></path>
            <path d="M128.125,91.009375 L103.125,91.009375 C101.397656,91.009375 100,89.6117187 100,87.884375 C100,86.1570312 101.397656,84.759375 103.125,84.759375 L128.125,84.759375 C129.852344,84.759375 131.25,86.1570312 131.25,87.884375 C131.25,89.6117187 129.852344,91.009375 128.125,91.009375 Z" id="Shape" fill="#BFBFBF"></path>
            <path d="M128.125,103.509375 L103.125,103.509375 C101.397656,103.509375 100,102.111719 100,100.384375 C100,98.6570312 101.397656,97.259375 103.125,97.259375 L128.125,97.259375 C129.852344,97.259375 131.25,98.6570312 131.25,100.384375 C131.25,102.111719 129.852344,103.509375 128.125,103.509375 Z" id="Shape" fill="#BFBFBF"></path>
            <path d="M165.625,78.509375 L140.625,78.509375 C138.897656,78.509375 137.5,77.1117187 137.5,75.384375 C137.5,73.6570312 138.897656,72.259375 140.625,72.259375 L165.625,72.259375 C167.352344,72.259375 168.75,73.6570312 168.75,75.384375 C168.75,77.1117187 167.352344,78.509375 165.625,78.509375 Z" id="Shape" fill="#BFBFBF"></path>
            <path d="M165.625,91.009375 L140.625,91.009375 C138.897656,91.009375 137.5,89.6117187 137.5,87.884375 C137.5,86.1570312 138.897656,84.759375 140.625,84.759375 L165.625,84.759375 C167.352344,84.759375 168.75,86.1570312 168.75,87.884375 C168.75,89.6117187 167.352344,91.009375 165.625,91.009375 Z" id="Shape" fill="#BFBFBF"></path>
            <path d="M165.625,103.509375 L140.625,103.509375 C138.897656,103.509375 137.5,102.111719 137.5,100.384375 C137.5,98.6570312 138.897656,97.259375 140.625,97.259375 L165.625,97.259375 C167.352344,97.259375 168.75,98.6570312 168.75,100.384375 C168.75,102.111719 167.352344,103.509375 165.625,103.509375 Z" id="Shape" fill="#BFBFBF"></path>
            <path d="M143.75,66.009375 L103.125,66.009375 C101.397656,66.009375 100,64.6117188 100,62.884375 C100,61.1570313 101.397656,59.759375 103.125,59.759375 L143.75,59.759375 C145.477344,59.759375 146.875,61.1570313 146.875,62.884375 C146.875,64.6117188 145.477344,66.009375 143.75,66.009375 Z" id="Shape" fill="#4D4D4D"></path>
            <path d="M87.5,131.634375 L112.5,131.634375 C115.951563,131.634375 118.75,128.835938 118.75,125.384375 L81.25,125.384375 C81.25,128.836328 84.0480469,131.634375 87.5,131.634375 Z" id="Shape" fill="#999999"></path>
        </g>
    </g>
</svg>