<?xml version="1.0" encoding="UTF-8"?>
<svg width="200px" height="200px" viewBox="0 0 200 200" version="1.1" xmlns="http://www.w3.org/2000/svg" xmlns:xlink="http://www.w3.org/1999/xlink">
    <!-- Generator: Sketch 51.3 (57544) - http://www.bohemiancoding.com/sketch -->
    <title>party</title>
    <desc>Created with Sketch.</desc>
    <defs></defs>
    <g id="party" stroke="none" stroke-width="1" fill="none" fill-rule="evenodd">
        <g id="confetti" transform="translate(3.000000, 0.000000)" fill-rule="nonzero">
            <path d="M99.5513514,82.9438669 C73.7683992,57.1642412 45.4972973,43.6357588 36.4029106,52.7268191 C35.4049896,53.7721414 34.6706861,55.0399168 34.2607069,56.4257796 L34.1143451,56.2794179 L25.429106,91.8719335 L16.7804574,127.358004 L6.52848233,169.377131 L0.0386694387,195.988358 L38.4619543,181.448649 L87.3334719,162.957173 L126.322245,148.204574 L126.275676,148.158004 C127.580873,147.741788 128.775052,147.035759 129.768399,146.092308 C138.862786,136.997921 125.334304,108.726819 99.5513514,82.9438669 Z" id="Shape" fill="#999999"></path>
            <ellipse id="Oval" fill="#E6E6E6" transform="translate(83.086447, 99.398216) rotate(-135.000000) translate(-83.086447, -99.398216) " cx="83.0864468" cy="99.3982157" rx="66.0189095" ry="23.2846"></ellipse>
            <g id="Group" transform="translate(60.706861, 19.542620)" fill="#BFBFBF">
                <path d="M102.325572,103.534304 C101.927235,103.533056 101.532225,103.461954 101.158004,103.32474 C84.2711019,96.9983368 66.0170478,95.2245322 48.2282744,98.1821206 L36.3463617,100.161331 C34.5276507,100.42079 32.8428274,99.1567568 32.583368,97.3380457 C32.3326403,95.5808732 33.5056133,93.9363825 35.2486486,93.6016632 L47.1338877,91.6058212 C66.0752599,88.4586279 85.5110187,90.3459459 103.493139,97.0777547 C105.222037,97.6989605 106.119751,99.604158 105.498545,101.333056 C105.018711,102.668607 103.744699,103.552599 102.325572,103.534304 Z" id="Shape"></path>
                <path d="M42.4503119,83.5758836 C40.6133056,83.5650728 39.1326403,82.0669439 39.1434511,80.2299376 C39.1509356,78.9617464 39.8785863,77.808316 41.0199584,77.2557173 L110.874428,43.991684 C112.533472,43.2016632 114.518503,43.9060291 115.308524,45.5650728 C116.098545,47.2241164 115.394179,49.2091476 113.735135,49.9991684 L43.8806653,83.2632017 C43.433264,83.4723493 42.9446985,83.57921 42.4503119,83.5758836 Z" id="Shape"></path>
                <path d="M3.55135135,76.9230769 C3.11268191,76.9239085 2.67817048,76.8370062 2.27401247,76.6669439 C0.578378378,75.9596674 -0.222869023,74.0120582 0.484407484,72.3164241 C0.484407484,72.3164241 0.484407484,72.3160083 0.484407484,72.3160083 L5.32099792,60.7101871 C12.762578,42.9284823 14.4977131,23.2744283 10.2873181,4.46403326 C9.85571726,2.67817048 10.9538462,0.881081081 12.7392931,0.449480249 C14.5251559,0.0178794179 16.3222453,1.11600832 16.7538462,2.9014553 C16.7634096,2.94095634 16.7721414,2.98045738 16.7804574,3.02037422 C21.2910603,23.1704782 19.431185,44.2241164 11.4582121,63.2715177 L6.61829522,74.8773389 C6.1018711,76.1151767 4.89272349,76.9218295 3.55135135,76.9230769 Z" id="Shape"></path>
            </g>
            <circle id="Oval" fill="#737373" cx="179.664449" cy="129.72973" r="6.65280665"></circle>
            <circle id="Oval" fill="#737373" cx="99.8307692" cy="36.5904366" r="6.65280665"></circle>
            <path d="M69.8931393,13.3056133 C66.218711,13.3056133 63.2403326,10.3272349 63.2403326,6.65280665 C63.2403326,2.97837838 66.218711,0 69.8931393,0 C73.5675676,0 76.5459459,2.97837838 76.5459459,6.65280665 C76.5459459,10.3272349 73.5675676,13.3056133 69.8931393,13.3056133 Z" id="Shape" fill="#BFBFBF"></path>
            <g id="Group" transform="translate(149.688150, 0.000000)" fill="#999999">
                <path d="M13.3442827,26.6112266 C11.5072765,26.6112266 10.0178794,25.1218295 10.0178794,23.2848233 L10.0178794,19.95842 C10.0178794,18.1214137 11.5072765,16.6320166 13.3442827,16.6320166 C15.181289,16.6320166 16.6706861,18.1214137 16.6706861,19.95842 L16.6706861,23.2848233 C16.6706861,25.1218295 15.1817048,26.6112266 13.3442827,26.6112266 Z" id="Shape"></path>
                <path d="M13.3442827,9.97920998 C11.5072765,9.97920998 10.0178794,8.48981289 10.0178794,6.65280665 L10.0178794,3.32640333 C10.0178794,1.48939709 11.5072765,0 13.3442827,0 C15.181289,0 16.6706861,1.48939709 16.6706861,3.32640333 L16.6706861,6.65280665 C16.6706861,8.48981289 15.1817048,9.97920998 13.3442827,9.97920998 Z" id="Shape"></path>
                <path d="M23.3234927,16.6320166 L19.9970894,16.6320166 C18.1600832,16.6320166 16.6706861,15.1426195 16.6706861,13.3056133 C16.6706861,11.4686071 18.1600832,9.97920998 19.9970894,9.97920998 L23.3234927,9.97920998 C25.160499,9.97920998 26.649896,11.4686071 26.649896,13.3056133 C26.649896,15.1426195 25.1609148,16.6320166 23.3234927,16.6320166 Z" id="Shape"></path>
                <path d="M6.69147609,16.6320166 L3.36507277,16.6320166 C1.52806653,16.6320166 0.0386694387,15.1426195 0.0386694387,13.3056133 C0.0386694387,11.4686071 1.52806653,9.97920998 3.36507277,9.97920998 L6.69147609,9.97920998 C8.52848233,9.97920998 10.0178794,11.4686071 10.0178794,13.3056133 C10.0178794,15.1426195 8.52889813,16.6320166 6.69147609,16.6320166 Z" id="Shape"></path>
            </g>
            <path d="M26.443659,96.4656965 C26.0711019,95.0419958 25.7384615,93.6049896 25.429106,92.1413721 L16.7804574,127.627443 L17.445738,135.740541 C18.8956341,153.037422 26.3259875,169.288565 38.4586279,181.701455 L87.3334719,163.226611 C87.0673597,163.143451 86.7912682,163.083576 86.5251559,162.993763 C56.8889813,151.881497 34.4885655,127.077339 26.443659,96.4656965 Z" id="Shape" fill="#E6E6E6"></path>
            <polygon id="Shape" fill="#737373" points="139.747609 39.8469854 139.747609 56.5488565 123.045738 56.5488565 123.045738 39.8469854"></polygon>
            <path d="M79.8723493,99.7920998 C78.035343,99.791684 76.5463617,98.3018711 76.5467775,96.4648649 C76.5471933,95.5226611 76.9467775,94.624948 77.6469854,93.9941788 L110.911019,64.0565489 C112.300208,62.8544699 114.400832,63.006237 115.602911,64.3954262 C116.771726,65.7459459 116.665281,67.7783784 115.361746,68.9995842 L82.0977131,98.9372141 C81.4873181,99.4873181 80.6943867,99.791684 79.8723493,99.7920998 Z" id="Shape" fill="#BFBFBF"></path>
            <g id="Group" transform="translate(0.000000, 3.326403)" fill="#BFBFBF">
                <path d="M176.338046,83.1600832 C174.50104,83.1600832 173.011642,81.6706861 173.011642,79.8336798 L173.011642,76.5072765 C173.011642,74.6702703 174.50104,73.1808732 176.338046,73.1808732 C178.175052,73.1808732 179.664449,74.6702703 179.664449,76.5072765 L179.664449,79.8336798 C179.664449,81.6706861 178.175468,83.1600832 176.338046,83.1600832 Z" id="Shape"></path>
                <path d="M188.100208,78.2869023 C187.217464,78.2893971 186.370478,77.9384615 185.748441,77.3122661 L183.396674,74.960499 C182.120582,73.6390852 182.156757,71.5330561 183.47817,70.2569647 C184.767152,69.0120582 186.810811,69.0120582 188.100208,70.2569647 L190.451975,72.6087318 C191.750936,73.9081081 191.75052,76.0141372 190.451143,77.3130977 C189.827859,77.9363825 188.982121,78.2869023 188.100208,78.2869023 Z" id="Shape"></path>
                <path d="M192.970062,66.5280665 L189.643659,66.5280665 C187.806653,66.5280665 186.317256,65.0386694 186.317256,63.2016632 C186.317256,61.364657 187.806653,59.8752599 189.643659,59.8752599 L192.970062,59.8752599 C194.807069,59.8752599 196.296466,61.364657 196.296466,63.2016632 C196.296466,65.0386694 194.807484,66.5280665 192.970062,66.5280665 Z" id="Shape"></path>
                <path d="M185.748441,57.1209979 C183.911435,57.1205821 182.422453,55.631185 182.422869,53.793763 C182.422869,52.9118503 182.773389,52.0661123 183.396674,51.4428274 L185.748441,49.0910603 C187.069854,47.814553 189.175468,47.8511435 190.451975,49.1725572 C191.696881,50.4615385 191.696881,52.5051975 190.451975,53.7945946 L188.100208,56.1463617 C187.476507,56.7700624 186.630769,57.1209979 185.748441,57.1209979 Z" id="Shape"></path>
                <path d="M176.338046,53.2224532 C174.50104,53.2224532 173.011642,51.7330561 173.011642,49.8960499 L173.011642,46.5696466 C173.011642,44.7326403 174.50104,43.2432432 176.338046,43.2432432 C178.175052,43.2432432 179.664449,44.7326403 179.664449,46.5696466 L179.664449,49.8960499 C179.664449,51.7330561 178.175468,53.2224532 176.338046,53.2224532 Z" id="Shape"></path>
                <path d="M166.927651,57.1209979 C166.045322,57.1209979 165.199584,56.7700624 164.575884,56.1463617 L162.224116,53.7945946 C160.948025,52.4731809 160.9842,50.3671518 162.305613,49.0910603 C163.594595,47.8461538 165.638254,47.8461538 166.927651,49.0910603 L169.279418,51.4428274 C170.578378,52.7422037 170.577963,54.8482328 169.278586,56.1471933 C168.655301,56.7704782 167.809563,57.1209979 166.927651,57.1209979 Z" id="Shape"></path>
                <polygon id="Shape" points="16.6706861 0 21.8099792 10.4149688 33.3027027 12.0848233 24.9866944 20.1912682 26.9492723 31.637422 16.6706861 26.2320166 6.39209979 31.637422 8.35467775 20.1912682 0.0386694387 12.0848233 11.5313929 10.4149688"></polygon>
            </g>
            <path d="M195.245322,180.177963 C193.663202,174.570894 190.020374,169.769647 185.04657,166.735967 L183.676091,164.680249 C175.991684,153.188773 163.908108,145.375052 150.275676,143.081913 C148.456965,142.822453 146.772141,144.086486 146.512682,145.905198 C146.261954,147.66237 147.434927,149.306861 149.177963,149.64158 C159.010811,151.310603 167.971726,156.306029 174.561746,163.7921 C169.021206,164.788773 164.175468,168.116424 161.256133,172.92973 C157.673597,179.345946 159.970894,187.451143 166.38711,191.03368 C172.803326,194.616216 180.908524,192.318919 184.49106,185.902703 C185.859459,183.261123 186.598337,180.338462 186.649896,177.363825 C190.189189,182.504366 190.472349,189.217464 187.378378,194.637838 C186.441164,196.217879 186.962162,198.258628 188.542204,199.195842 C190.122245,200.133056 192.162994,199.612058 193.100208,198.032017 C193.130146,197.981289 193.158836,197.930146 193.186279,197.877755 C196.208316,192.489397 196.949688,186.116008 195.245322,180.177963 Z M178.689813,182.656133 C176.914345,185.873181 172.86736,187.04158 169.650728,185.266112 C166.43368,183.490644 165.265281,179.443659 167.040748,176.227027 C167.050728,176.209148 167.060707,176.190852 167.070686,176.172973 C169.03368,172.958836 172.344699,170.804158 176.078586,170.31185 C176.656965,170.29605 177.229522,170.429106 177.741788,170.697713 C180.549272,172.264449 180.69896,179.056965 178.689813,182.656133 Z" id="Shape" fill="#BFBFBF"></path>
        </g>
    </g>
</svg>