<?xml version="1.0" encoding="UTF-8"?>
<svg width="200px" height="200px" viewBox="0 0 200 200" version="1.1" xmlns="http://www.w3.org/2000/svg" xmlns:xlink="http://www.w3.org/1999/xlink">
    <!-- Generator: Sketch 51.3 (57544) - http://www.bohemiancoding.com/sketch -->
    <title>speed</title>
    <desc>Created with Sketch.</desc>
    <defs></defs>
    <g id="speed" stroke="none" stroke-width="1" fill="none" fill-rule="evenodd">
        <g id="racing-car" fill-rule="nonzero">
            <path d="M199.796605,100 C199.796605,155.11722 155.11722,199.796605 100,199.796605 C44.8827798,199.796605 0.20339527,155.11722 0.20339527,100 C0.20339527,44.8827798 44.8827798,0.20339527 100,0.20339527 C155.11722,0.20339527 199.796605,44.8827798 199.796605,100 Z" id="Shape" fill="#E6E6E6"></path>
            <path d="M100,39.4246696 L100,14.2291095 C77.4046199,14.2291095 56.8547429,22.9719832 41.5340942,37.2513228 L58.6610536,55.7268296 C69.4865456,45.6147889 84.0195112,39.4246696 100,39.4246696 Z" id="Shape" fill="#737373"></path>
            <path d="M58.6610536,55.7268296 L41.5340942,37.2513228 C24.7370539,52.9080775 14.2291095,75.2250876 14.2291095,100 L39.4246696,100 C39.4246696,82.5266248 46.8251821,66.7832659 58.6610536,55.7268296 Z" id="Shape" fill="#999999"></path>
            <path d="M39.4246696,100 L14.2291095,100 C14.2291095,124.341892 24.3720803,146.314549 40.6598068,161.92594 L58.1929798,143.836027 C46.6292921,132.804334 39.4246696,117.244494 39.4246696,100 Z" id="Shape" fill="#BFBFBF"></path>
            <path d="M160.57533,100 C160.57533,117.630088 153.040788,133.499228 141.019336,144.570098 L158.146296,163.045605 C175.128916,147.374416 185.770891,124.931624 185.770891,100 L160.57533,100 Z" id="Shape" fill="#000000"></path>
            <path d="M100,14.2291095 L100,39.4246696 C116.561972,39.4246696 131.569198,46.0725528 142.503975,56.8444331 L160.037149,38.7545196 C144.565974,23.586459 123.376877,14.2291095 100,14.2291095 Z" id="Shape" fill="#4D4D4D"></path>
            <path d="M160.037149,38.7524578 L142.503975,56.8444331 C153.657326,67.8307612 160.57533,83.1060462 160.57533,100 L185.770891,100 C185.770891,76.0065852 175.914538,54.3205469 160.037149,38.7524578 Z" id="Shape" fill="#262626"></path>
            <g id="Group" transform="translate(130.105118, 122.248711) rotate(-300.000000) translate(-130.105118, -122.248711) translate(102.105118, 78.248711)" fill="#999999">
                <path d="M4.10212996,61.1123179 C-2.02819151,68.9870904 0.33485853,80.453864 9.03030617,85.2851267 L55.0974155,0.32253959 L4.10212996,61.1123179 Z" id="Shape"></path>
                <path d="M9.03030617,85.2851267 C9.09010452,85.3181187 9.14784048,85.3552344 9.20970017,85.3882264 C18.0515498,90.1596912 29.0626219,85.8377423 32.3020217,76.3278051 L55.0953537,0.32253959 L9.03030617,85.2851267 Z" id="Shape"></path>
            </g>
            <polygon id="Shape" fill="#999999" points="62.7025707 153.541854 137.297429 153.541854 137.297429 182.875845 62.7025707 182.875845"></polygon>
        </g>
    </g>
</svg>